<svg width="270" height="67" viewBox="0 0 270 67" fill="none" xmlns="http://www.w3.org/2000/svg">
<rect width="270" height="67" rx="10" fill="#30353E"/>
<g filter="url(#filter0_b_7_29)">
<path d="M41.1353 11.6134L23.8614 16.199C17.5665 17.8701 14.9556 22.35 16.6421 28.5858L21.2658 45.6815C22.9523 51.9174 27.4745 54.5037 33.7693 52.8327L51.0432 48.2471C57.3381 46.5761 59.9327 42.1005 58.2461 35.8647L53.6224 18.7689C51.9359 12.5331 47.4302 9.94238 41.1353 11.6134Z" fill="url(#paint0_linear_7_29)"/>
</g>
<g filter="url(#filter1_f_7_29)">
<path d="M22.9989 24.6819C22.0408 26.1969 21.7945 27.9162 22.3012 29.4578L26.034 40.8143C27.0923 44.0342 31.0749 45.6232 34.9377 44.379L45.8754 40.8558C49.7382 39.6116 52.0099 35.9954 50.9553 32.7869L47.2225 21.4304C46.1679 18.222 42.1812 16.6204 38.3184 17.8646L27.3807 21.3877C25.5254 21.9853 23.9539 23.1666 22.9989 24.6819" fill="#EF5641" fill-opacity="0.5"/>
</g>
<g filter="url(#filter2_b_7_29)">
<mask id="path-4-outside-1_7_29" maskUnits="userSpaceOnUse" x="24.7188" y="20.074" width="41" height="40" fill="black">
<rect fill="white" x="24.7188" y="20.074" width="41" height="40"/>
<path d="M53.8087 21.074H35.9271C29.4108 21.074 25.7188 24.7318 25.7188 31.1876V48.8864C25.7188 55.3423 29.4108 59 35.9271 59H53.8087C60.325 59 64 55.3423 64 48.8864V31.1876C64 24.7318 60.325 21.074 53.8087 21.074"/>
</mask>
<path d="M53.8087 21.074H35.9271C29.4108 21.074 25.7188 24.7318 25.7188 31.1876V48.8864C25.7188 55.3423 29.4108 59 35.9271 59H53.8087C60.325 59 64 55.3423 64 48.8864V31.1876C64 24.7318 60.325 21.074 53.8087 21.074" fill="#FFAC95" fill-opacity="0.4"/>
<path d="M53.8087 22.074C54.361 22.074 54.8087 21.6263 54.8087 21.074C54.8087 20.5218 54.361 20.074 53.8087 20.074V22.074ZM53.8087 20.074C53.2564 20.074 52.8087 20.5218 52.8087 21.074C52.8087 21.6263 53.2564 22.074 53.8087 22.074V20.074ZM53.8087 20.074H35.9271V22.074H53.8087V20.074ZM35.9271 20.074C32.4856 20.074 29.6505 21.0428 27.6755 22.9995C25.6992 24.9575 24.7188 27.7712 24.7188 31.1876H26.7188C26.7188 28.1482 27.5844 25.9051 29.0831 24.4203C30.5832 22.9341 32.8523 22.074 35.9271 22.074V20.074ZM24.7188 31.1876V48.8864H26.7188V31.1876H24.7188ZM24.7188 48.8864C24.7188 52.3028 25.6992 55.1166 27.6755 57.0745C29.6505 59.0312 32.4856 60 35.9271 60V58C32.8523 58 30.5832 57.1399 29.0831 55.6537C27.5844 54.1689 26.7188 51.9258 26.7188 48.8864H24.7188ZM35.9271 60H53.8087V58H35.9271V60ZM53.8087 60C57.2503 60 60.0817 59.0311 62.0526 57.0737C64.0246 55.1153 65 52.3016 65 48.8864H63C63 51.9271 62.1379 54.1702 60.6433 55.6546C59.1477 57.14 56.8834 58 53.8087 58V60ZM65 48.8864V31.1876H63V48.8864H65ZM65 31.1876C65 27.7725 64.0246 24.9588 62.0526 23.0004C60.0817 21.0429 57.2503 20.074 53.8087 20.074V22.074C56.8834 22.074 59.1477 22.934 60.6433 24.4194C62.1379 25.9038 63 28.1469 63 31.1876H65Z" fill="url(#paint1_linear_7_29)" mask="url(#path-4-outside-1_7_29)"/>
</g>
<g filter="url(#filter3_bd_7_29)">
<path d="M43.4239 47.7756V35.7341L38.7153 40.437C38.1411 40.9869 37.2415 40.9869 36.6673 40.437C36.1122 39.887 36.1122 38.9768 36.6673 38.4269L43.845 31.2778C44.3809 30.7469 45.338 30.7469 45.8739 31.2778L53.0516 38.4269C53.6067 38.9768 53.6067 39.887 53.0516 40.437C52.7645 40.7024 52.3989 40.8541 52.0372 40.8541C51.6735 40.8541 51.2907 40.7024 51.0227 40.437L46.295 35.7341V47.7756C46.295 48.5721 45.6634 49.1978 44.8595 49.1978C44.0747 49.1978 43.4239 48.5721 43.4239 47.7756Z" fill="url(#paint2_linear_7_29)"/>
<path d="M43.5239 35.7341V35.4929L43.3532 35.6634L38.6454 40.3654C38.11 40.8774 37.2724 40.8774 36.737 40.3653C36.2221 39.8544 36.2223 39.0085 36.7377 38.4979L36.7378 38.4977L43.9154 31.3489C43.9154 31.3488 43.9155 31.3488 43.9155 31.3488C44.4124 30.8566 45.3065 30.8566 45.8034 31.3488C45.8034 31.3488 45.8035 31.3488 45.8035 31.3489L52.9811 38.4977L52.9813 38.4979C53.4964 39.0083 53.4968 39.8538 52.9825 40.3647C52.7121 40.6141 52.3708 40.7541 52.0372 40.7541C51.6994 40.7541 51.342 40.6125 51.0932 40.366C51.0931 40.3659 51.0931 40.3659 51.0931 40.3659L46.3655 35.6632L46.195 35.4936V35.7341V47.7756C46.195 48.516 45.609 49.0978 44.8595 49.0978C44.1282 49.0978 43.5239 48.5151 43.5239 47.7756V35.7341Z" stroke="url(#paint3_linear_7_29)" stroke-opacity="0.5" stroke-width="0.2"/>
</g>
<path d="M89.5 33.32C90.38 33.5333 91.0267 33.8933 91.44 34.4C91.8667 34.8933 92.08 35.5467 92.08 36.36C92.08 38.8533 90.1267 40.1 86.22 40.1C85.0733 40.1 83.9 40.0667 82.7 40L82.84 36.16L82.7 27.12L87.28 27.1C88.6 27.1 89.6267 27.38 90.36 27.94C91.0933 28.4867 91.46 29.28 91.46 30.32C91.46 31.0133 91.2867 31.62 90.94 32.14C90.6067 32.66 90.1267 33.0533 89.5 33.32ZM88.68 30.68C88.68 30.0933 88.5067 29.68 88.16 29.44C87.8133 29.1867 87.2067 29.06 86.34 29.06H85.36L85.3 32.56L87.18 32.62C87.6867 32.4867 88.06 32.2667 88.3 31.96C88.5533 31.6533 88.68 31.2267 88.68 30.68ZM86.68 38.16C87.52 38.16 88.1667 37.9933 88.62 37.66C89.0867 37.3267 89.32 36.8467 89.32 36.22C89.32 35.2733 88.7067 34.6867 87.48 34.46L85.26 34.5L85.24 35.92L85.3 38.08C85.7667 38.1333 86.2267 38.16 86.68 38.16ZM101.275 37.96L101.435 38.12L101.255 40H94.3355L94.4355 37L94.3355 29.9H101.355L101.495 30.1L101.335 31.96L98.7355 31.86H96.8555L96.8155 33.9L98.6155 33.92L100.355 33.86L100.495 34.04L100.335 35.94L98.4355 35.88H96.7755L96.7555 36.76L96.7955 38.04H98.5555L101.275 37.96ZM108.227 29.88C109.373 29.88 110.253 30.1533 110.867 30.7C111.48 31.2333 111.787 32.0067 111.787 33.02C111.787 34.1933 111.38 35.1333 110.567 35.84C109.753 36.5467 108.667 36.9 107.307 36.9H106.287L106.387 40H103.867L103.967 37L103.867 29.9L108.227 29.88ZM107.767 35.1C108.233 34.9533 108.58 34.7333 108.807 34.44C109.033 34.1467 109.147 33.7533 109.147 33.26C109.147 32.7533 109 32.3733 108.707 32.12C108.427 31.8667 107.987 31.7267 107.387 31.7L106.387 31.74L106.327 35.04L107.767 35.1ZM122.673 36.76L122.773 40H120.253L120.353 37L120.333 36.02L118.073 36L116.053 36.04L116.033 36.76L116.133 40H113.613L113.713 37L113.613 29.9H116.173L116.093 33.9L118.233 33.94L120.313 33.92L120.253 29.9H122.813L122.673 36.76ZM130.002 37.26L130.102 40H127.582L127.702 37.26L127.682 36.76L124.262 29.9H126.942L127.162 30.64L128.862 34.18H129.002L130.882 30.74L131.202 29.9H133.802L130.022 36.7L130.002 37.26ZM141.873 30.1L141.733 32.02L139.693 31.88H139.113L139.053 36.76L139.133 40H136.633L136.733 37L136.693 31.88H136.113L134.033 32.02L133.873 31.82L134.013 29.9H141.733L141.873 30.1ZM148.138 33.62C149.245 33.62 150.085 33.86 150.658 34.34C151.231 34.8067 151.518 35.4933 151.518 36.4C151.518 37.52 151.098 38.4 150.258 39.04C149.431 39.68 148.278 40 146.798 40H143.438L143.578 37L143.438 29.86H145.998L145.938 33.62H148.138ZM147.418 38.26C147.885 38.1667 148.238 37.9933 148.478 37.74C148.731 37.4733 148.858 37.14 148.858 36.74C148.858 36.3133 148.718 35.98 148.438 35.74C148.171 35.4867 147.785 35.3667 147.278 35.38L145.898 35.42L145.878 36.78L145.918 38.18L147.418 38.26ZM157.974 29.76C158.974 29.76 159.908 29.9333 160.774 30.28L160.334 32.4L160.134 32.5C159.828 32.2867 159.468 32.12 159.054 32C158.641 31.88 158.228 31.82 157.814 31.82C157.001 31.82 156.394 32.06 155.994 32.54C155.594 33.0067 155.394 33.7467 155.394 34.76C155.394 36.96 156.241 38.06 157.934 38.06C158.334 38.06 158.748 38.0067 159.174 37.9C159.601 37.7933 159.988 37.6467 160.334 37.46L160.554 37.58L160.354 39.68C159.568 40 158.708 40.16 157.774 40.16C156.134 40.16 154.888 39.72 154.034 38.84C153.181 37.96 152.754 36.6933 152.754 35.04C152.754 33.36 153.208 32.06 154.114 31.14C155.021 30.22 156.308 29.76 157.974 29.76ZM170.23 37L170.37 40H167.81L167.91 36.76V36.74H166.41C165.823 37.8733 165.223 38.9467 164.61 39.96L164.37 40.16C163.437 40.12 162.597 39.96 161.85 39.68L161.81 39.42C162.797 38.3 163.677 37.2067 164.45 36.14C163.103 35.4867 162.43 34.5133 162.43 33.22C162.43 32.5667 162.603 31.9867 162.95 31.48C163.297 30.96 163.783 30.56 164.41 30.28C165.037 29.9867 165.743 29.84 166.53 29.84L170.37 29.88L170.23 37ZM167.87 34.82L167.81 31.72L166.73 31.68C165.637 31.7067 165.09 32.2133 165.09 33.2C165.09 33.64 165.197 34 165.41 34.28C165.637 34.5467 165.99 34.7533 166.47 34.9L167.87 34.82ZM181.267 34.66C182.481 36.2867 183.801 37.8867 185.227 39.46L185.167 39.76C184.261 39.9867 183.434 40.1267 182.687 40.18L182.367 40.04C181.047 38.2933 179.854 36.6067 178.787 34.98L178.747 36.76L178.847 40H176.327L176.427 37L176.327 29.9H178.887L178.787 34.46L181.547 30.92L182.167 29.9L184.927 29.88L181.267 34.66ZM194.281 29.88C195.428 29.88 196.308 30.1533 196.921 30.7C197.535 31.2333 197.841 32.0067 197.841 33.02C197.841 34.1933 197.435 35.1333 196.621 35.84C195.808 36.5467 194.721 36.9 193.361 36.9H192.341L192.441 40H189.921L190.021 37L189.921 29.9L194.281 29.88ZM193.821 35.1C194.288 34.9533 194.635 34.7333 194.861 34.44C195.088 34.1467 195.201 33.7533 195.201 33.26C195.201 32.7533 195.055 32.3733 194.761 32.12C194.481 31.8667 194.041 31.7267 193.441 31.7L192.441 31.74L192.381 35.04L193.821 35.1ZM207.013 40H204.473L204.193 38.54L204.013 37.96L201.973 37.94L200.173 37.98L200.033 38.4L199.733 40H197.273L200.813 29.9H203.793L207.013 40ZM203.473 36.06L202.333 32.2H202.173L200.833 36.06L202.133 36.08L203.473 36.06ZM213.51 33.78C214.644 33.78 215.504 34.0133 216.09 34.48C216.69 34.9467 216.99 35.62 216.99 36.5C216.99 37.5933 216.564 38.4533 215.71 39.08C214.857 39.6933 213.67 40 212.15 40H208.75L208.89 37L208.75 29.88H216.41L216.55 30.06L216.39 31.92L213.69 31.84H211.27L211.25 33.78H213.51ZM212.81 38.28C213.81 38.0933 214.31 37.6067 214.31 36.82C214.31 36.4067 214.17 36.0867 213.89 35.86C213.61 35.6333 213.204 35.5267 212.67 35.54L211.21 35.56L211.19 36.78L211.23 38.2L212.81 38.28ZM223.597 29.74C225.117 29.74 226.29 30.1733 227.117 31.04C227.944 31.9067 228.357 33.1333 228.357 34.72C228.357 36.4533 227.904 37.8 226.997 38.76C226.104 39.7067 224.837 40.18 223.197 40.18C221.69 40.18 220.524 39.74 219.697 38.86C218.87 37.9667 218.457 36.7133 218.457 35.1C218.457 33.3933 218.904 32.0733 219.797 31.14C220.69 30.2067 221.957 29.74 223.597 29.74ZM223.377 31.78C222.55 31.78 221.957 32.0067 221.597 32.46C221.25 32.9 221.077 33.6667 221.077 34.76C221.077 35.64 221.15 36.3333 221.297 36.84C221.457 37.3333 221.704 37.6867 222.037 37.9C222.384 38.1133 222.844 38.22 223.417 38.22C224.257 38.22 224.85 38 225.197 37.56C225.557 37.12 225.737 36.3467 225.737 35.24C225.737 34.36 225.657 33.6733 225.497 33.18C225.337 32.6733 225.09 32.3133 224.757 32.1C224.424 31.8867 223.964 31.78 223.377 31.78ZM236.483 30.1L236.343 32.02L234.303 31.88H233.723L233.663 36.76L233.743 40H231.243L231.343 37L231.303 31.88H230.723L228.643 32.02L228.483 31.82L228.623 29.9H236.343L236.483 30.1ZM244.947 37.96L245.107 38.12L244.927 40H238.007L238.107 37L238.007 29.9H245.027L245.167 30.1L245.007 31.96L242.407 31.86H240.527L240.487 33.9L242.287 33.92L244.027 33.86L244.167 34.04L244.007 35.94L242.107 35.88H240.447L240.427 36.76L240.467 38.04H242.227L244.947 37.96Z" fill="white"/>
<defs>
<filter id="filter0_b_7_29" x="3.14097" y="-1.88273" width="68.608" height="68.212" filterUnits="userSpaceOnUse" color-interpolation-filters="sRGB">
<feFlood flood-opacity="0" result="BackgroundImageFix"/>
<feGaussianBlur in="BackgroundImageFix" stdDeviation="6.5"/>
<feComposite in2="SourceAlpha" operator="in" result="effect1_backgroundBlur_7_29"/>
<feBlend mode="normal" in="SourceGraphic" in2="effect1_backgroundBlur_7_29" result="shape"/>
</filter>
<filter id="filter1_f_7_29" x="6.04386" y="1.44264" width="61.1696" height="59.3599" filterUnits="userSpaceOnUse" color-interpolation-filters="sRGB">
<feFlood flood-opacity="0" result="BackgroundImageFix"/>
<feBlend mode="normal" in="SourceGraphic" in2="BackgroundImageFix" result="shape"/>
<feGaussianBlur stdDeviation="8" result="effect1_foregroundBlur_7_29"/>
</filter>
<filter id="filter2_b_7_29" x="9.71877" y="5.07404" width="70.2812" height="69.926" filterUnits="userSpaceOnUse" color-interpolation-filters="sRGB">
<feFlood flood-opacity="0" result="BackgroundImageFix"/>
<feGaussianBlur in="BackgroundImageFix" stdDeviation="7.5"/>
<feComposite in2="SourceAlpha" operator="in" result="effect1_backgroundBlur_7_29"/>
<feBlend mode="normal" in="SourceGraphic" in2="effect1_backgroundBlur_7_29" result="shape"/>
</filter>
<filter id="filter3_bd_7_29" x="21.251" y="15.8796" width="47.217" height="48.3182" filterUnits="userSpaceOnUse" color-interpolation-filters="sRGB">
<feFlood flood-opacity="0" result="BackgroundImageFix"/>
<feGaussianBlur in="BackgroundImageFix" stdDeviation="7.5"/>
<feComposite in2="SourceAlpha" operator="in" result="effect1_backgroundBlur_7_29"/>
<feColorMatrix in="SourceAlpha" type="matrix" values="0 0 0 0 0 0 0 0 0 0 0 0 0 0 0 0 0 0 127 0" result="hardAlpha"/>
<feOffset dx="5" dy="5"/>
<feGaussianBlur stdDeviation="5"/>
<feColorMatrix type="matrix" values="0 0 0 0 1 0 0 0 0 0.447059 0 0 0 0 0.368627 0 0 0 0.5 0"/>
<feBlend mode="normal" in2="effect1_backgroundBlur_7_29" result="effect2_dropShadow_7_29"/>
<feBlend mode="normal" in="SourceGraphic" in2="effect2_dropShadow_7_29" result="shape"/>
</filter>
<linearGradient id="paint0_linear_7_29" x1="40.8301" y1="33.9557" x2="12.7972" y2="58.4938" gradientUnits="userSpaceOnUse">
<stop stop-color="#FFA78F"/>
<stop offset="1" stop-color="#F23E2C"/>
</linearGradient>
<linearGradient id="paint1_linear_7_29" x1="31.8125" y1="25.4925" x2="55.9568" y2="55.6758" gradientUnits="userSpaceOnUse">
<stop stop-color="white" stop-opacity="0.25"/>
<stop offset="1" stop-color="white" stop-opacity="0"/>
</linearGradient>
<linearGradient id="paint2_linear_7_29" x1="52.2473" y1="34.1875" x2="33.0668" y2="34.7753" gradientUnits="userSpaceOnUse">
<stop stop-color="white"/>
<stop offset="1" stop-color="white" stop-opacity="0.2"/>
</linearGradient>
<linearGradient id="paint3_linear_7_29" x1="52.7302" y1="40.4262" x2="35.9881" y2="41.0817" gradientUnits="userSpaceOnUse">
<stop stop-color="white"/>
<stop offset="1" stop-color="white" stop-opacity="0"/>
</linearGradient>
</defs>
</svg>
