<svg width="250" height="67" viewBox="0 0 250 67" fill="none" xmlns="http://www.w3.org/2000/svg">
<rect width="250" height="67" rx="10" fill="#30353E"/>
<path d="M22.8731 15.7529L38.4419 11.4541C44.1154 9.88758 48.2251 12.4432 49.8053 18.5203L54.1374 35.1807C55.7176 41.2578 53.3984 45.5886 47.7249 47.1551L32.1562 51.4539C26.4827 53.0205 22.3877 50.4608 20.8076 44.3837L16.4755 27.7232C14.8953 21.6461 17.1997 17.3195 22.8731 15.7529Z" fill="url(#paint0_linear_7_29)"/>
<g filter="url(#filter0_f_7_29)">
<path d="M26.8922 20.8947L37.462 17.9762C41.3139 16.9126 44.0737 18.5309 45.0929 22.4507L47.8872 33.197C48.9064 37.1168 47.3016 39.9403 43.4497 41.0038L32.8799 43.9224C29.0281 44.9859 26.2783 43.3648 25.259 39.445L22.4648 28.6988C21.4455 24.7789 23.0404 21.9582 26.8922 20.8947Z" fill="#30AD31" fill-opacity="0.5"/>
</g>
<g filter="url(#filter1_b_7_29)">
<mask id="path-4-outside-1_7_29" maskUnits="userSpaceOnUse" x="24.3831" y="18.2058" width="41" height="42" fill="black">
<rect fill="white" x="24.3831" y="18.2058" width="41" height="42"/>
<path d="M53.6893 19.2058H35.6745C29.0903 19.2058 25.3831 23.026 25.3831 29.811V48.3948C25.3831 55.14 29.0903 59 35.6745 59H53.7086C60.2735 59 64 55.14 64 48.3948V29.811C64 23.026 60.2542 19.2058 53.6893 19.2058"/>
</mask>
<path d="M53.6893 19.2058H35.6745C29.0903 19.2058 25.3831 23.026 25.3831 29.811V48.3948C25.3831 55.14 29.0903 59 35.6745 59H53.7086C60.2735 59 64 55.14 64 48.3948V29.811C64 23.026 60.2542 19.2058 53.6893 19.2058" fill="#72DC60" fill-opacity="0.35"/>
<path d="M53.6893 20.2058C54.2416 20.2058 54.6893 19.7581 54.6893 19.2058C54.6893 18.6535 54.2416 18.2058 53.6893 18.2058V20.2058ZM53.6893 18.2058C53.137 18.2058 52.6893 18.6535 52.6893 19.2058C52.6893 19.7581 53.137 20.2058 53.6893 20.2058V18.2058ZM53.6893 18.2058H35.6745V20.2058H53.6893V18.2058ZM35.6745 18.2058C32.1897 18.2058 29.3283 19.2209 27.3421 21.2676C25.3602 23.3099 24.3831 26.2422 24.3831 29.811H26.3831C26.3831 26.5948 27.2596 24.2245 28.7774 22.6604C30.2909 21.1008 32.5751 20.2058 35.6745 20.2058V18.2058ZM24.3831 29.811V48.3948H26.3831V29.811H24.3831ZM24.3831 48.3948C24.3831 51.9451 25.3609 54.8761 27.3411 56.9223C29.326 58.9733 32.1869 60 35.6745 60V58C32.5779 58 30.2931 57.0967 28.7784 55.5314C27.2589 53.9613 26.3831 51.5897 26.3831 48.3948H24.3831ZM35.6745 60H53.7086V58H35.6745V60ZM53.7086 60C57.1873 60 60.0475 58.9729 62.0343 56.9228C64.0166 54.8771 65 51.9464 65 48.3948H63C63 51.5884 62.1201 53.9602 60.598 55.5309C59.0803 57.0971 56.7948 58 53.7086 58V60ZM65 48.3948V29.811H63V48.3948H65ZM65 29.811C65 26.2395 64.0117 23.3074 62.0227 21.2661C60.03 19.2212 57.165 18.2058 53.6893 18.2058V20.2058C56.7784 20.2058 59.0688 21.1005 60.5903 22.6619C62.1154 24.227 63 26.5975 63 29.811H65Z" fill="url(#paint1_linear_7_29)" mask="url(#path-4-outside-1_7_29)"/>
</g>
<g filter="url(#filter2_bd_7_29)">
<mask id="path-6-inside-2_7_29" fill="white">
<path d="M51.7584 40.7526H46.2748V46.3835C46.2748 47.2988 45.5603 48.035 44.6722 48.035C43.784 48.035 43.0696 47.2988 43.0696 46.3835V40.7526H37.6053C36.7171 40.7327 36.0027 39.9965 36.0027 39.0813C36.0027 38.6415 36.1764 38.2257 36.4661 37.9073C36.775 37.6089 37.1805 37.4298 37.6053 37.4298H43.0696V31.8188C43.0696 30.9036 43.784 30.1674 44.6722 30.1674C45.5603 30.1674 46.2748 30.9036 46.2748 31.8188V37.4298H51.7584C52.6465 37.4298 53.361 38.166 53.361 39.0813C53.361 39.9965 52.6465 40.7327 51.7584 40.7526"/>
</mask>
<path d="M51.7584 40.7526H46.2748V46.3835C46.2748 47.2988 45.5603 48.035 44.6722 48.035C43.784 48.035 43.0696 47.2988 43.0696 46.3835V40.7526H37.6053C36.7171 40.7327 36.0027 39.9965 36.0027 39.0813C36.0027 38.6415 36.1764 38.2257 36.4661 37.9073C36.775 37.6089 37.1805 37.4298 37.6053 37.4298H43.0696V31.8188C43.0696 30.9036 43.784 30.1674 44.6722 30.1674C45.5603 30.1674 46.2748 30.9036 46.2748 31.8188V37.4298H51.7584C52.6465 37.4298 53.361 38.166 53.361 39.0813C53.361 39.9965 52.6465 40.7327 51.7584 40.7526" fill="url(#paint2_linear_7_29)"/>
<path d="M46.2748 40.7526V40.5526H46.0748V40.7526H46.2748ZM43.0696 40.7526H43.2696V40.5526H43.0696V40.7526ZM37.6053 40.7526L37.6008 40.9526H37.6053V40.7526ZM36.4661 37.9073L36.3268 37.7632L36.3181 37.7727L36.4661 37.9073ZM43.0696 37.4298V37.6298H43.2696V37.4298H43.0696ZM46.2748 37.4298H46.0748V37.6298H46.2748V37.4298ZM51.7584 40.5526H46.2748V40.9526H51.7584V40.5526ZM46.0748 40.7526V46.3835H46.4748V40.7526H46.0748ZM46.0748 46.3835C46.0748 47.194 45.4443 47.835 44.6722 47.835V48.235C45.6764 48.235 46.4748 47.4035 46.4748 46.3835H46.0748ZM44.6722 47.835C43.9 47.835 43.2696 47.194 43.2696 46.3835H42.8696C42.8696 47.4035 43.6679 48.235 44.6722 48.235V47.835ZM43.2696 46.3835V40.7526H42.8696V46.3835H43.2696ZM43.0696 40.5526H37.6053V40.9526H43.0696V40.5526ZM37.6098 40.5527C36.8332 40.5353 36.2027 39.8908 36.2027 39.0813H35.8027C35.8027 40.1023 36.601 40.9302 37.6008 40.9526L37.6098 40.5527ZM36.2027 39.0813C36.2027 38.6947 36.3555 38.3261 36.614 38.0419L36.3181 37.7727C35.9974 38.1253 35.8027 38.5883 35.8027 39.0813H36.2027ZM36.605 38.0512C36.8805 37.7851 37.2374 37.6298 37.6053 37.6298V37.2298C37.1236 37.2298 36.6696 37.4327 36.3271 37.7635L36.605 38.0512ZM37.6053 37.6298H43.0696V37.2298H37.6053V37.6298ZM43.2696 37.4298V31.8188H42.8696V37.4298H43.2696ZM43.2696 31.8188C43.2696 31.0083 43.9 30.3674 44.6722 30.3674V29.9674C43.6679 29.9674 42.8696 30.7988 42.8696 31.8188H43.2696ZM44.6722 30.3674C45.4443 30.3674 46.0748 31.0083 46.0748 31.8188H46.4748C46.4748 30.7988 45.6764 29.9674 44.6722 29.9674V30.3674ZM46.0748 31.8188V37.4298H46.4748V31.8188H46.0748ZM46.2748 37.6298H51.7584V37.2298H46.2748V37.6298ZM51.7584 37.6298C52.5305 37.6298 53.161 38.2707 53.161 39.0813H53.561C53.561 38.0612 52.7626 37.2298 51.7584 37.2298V37.6298ZM53.161 39.0813C53.161 39.8908 52.5304 40.5353 51.7539 40.5527L51.7628 40.9526C52.7627 40.9302 53.561 40.1023 53.561 39.0813H53.161Z" fill="url(#paint3_linear_7_29)" fill-opacity="0.5" mask="url(#path-6-inside-2_7_29)"/>
</g>
<path d="M94.2 37.78V42.54L92.2 42.72L91.84 40H83.66L83.32 42.54L81.28 42.72V37.78H82.34C82.9133 37.5 83.36 37.08 83.68 36.52C84 35.9467 84.26 35.1333 84.46 34.08C84.6733 33.0133 84.8733 31.5 85.06 29.54L85.32 27.12H92.56L92.42 35.92L92.46 37.78H94.2ZM89.88 37.78L89.94 36.16L89.84 29.18H87.48L87.4 30.02C87.1733 32.2867 86.8933 34.0067 86.56 35.18C86.24 36.34 85.7933 37.2067 85.22 37.78H89.88ZM100.433 29.74C101.953 29.74 103.126 30.1733 103.953 31.04C104.779 31.9067 105.193 33.1333 105.193 34.72C105.193 36.4533 104.739 37.8 103.833 38.76C102.939 39.7067 101.673 40.18 100.033 40.18C98.5261 40.18 97.3595 39.74 96.5328 38.86C95.7061 37.9667 95.2928 36.7133 95.2928 35.1C95.2928 33.3933 95.7395 32.0733 96.6328 31.14C97.5261 30.2067 98.7928 29.74 100.433 29.74ZM100.213 31.78C99.3861 31.78 98.7928 32.0067 98.4328 32.46C98.0861 32.9 97.9128 33.6667 97.9128 34.76C97.9128 35.64 97.9861 36.3333 98.1328 36.84C98.2928 37.3333 98.5395 37.6867 98.8728 37.9C99.2195 38.1133 99.6795 38.22 100.253 38.22C101.093 38.22 101.686 38 102.033 37.56C102.393 37.12 102.573 36.3467 102.573 35.24C102.573 34.36 102.493 33.6733 102.333 33.18C102.173 32.6733 101.926 32.3133 101.593 32.1C101.259 31.8867 100.799 31.78 100.213 31.78ZM112.026 33.78C113.159 33.78 114.019 34.0133 114.606 34.48C115.206 34.9467 115.506 35.62 115.506 36.5C115.506 37.5933 115.079 38.4533 114.226 39.08C113.373 39.6933 112.186 40 110.666 40H107.266L107.406 37L107.266 29.88H114.926L115.066 30.06L114.906 31.92L112.206 31.84H109.786L109.766 33.78H112.026ZM111.326 38.28C112.326 38.0933 112.826 37.6067 112.826 36.82C112.826 36.4067 112.686 36.0867 112.406 35.86C112.126 35.6333 111.719 35.5267 111.186 35.54L109.726 35.56L109.706 36.78L109.746 38.2L111.326 38.28ZM126.213 40H123.673L123.393 38.54L123.213 37.96L121.173 37.94L119.373 37.98L119.233 38.4L118.933 40H116.473L120.013 29.9H122.993L126.213 40ZM122.673 36.06L121.533 32.2H121.373L120.033 36.06L121.333 36.08L122.673 36.06ZM133.91 34.78C134.616 34.9533 135.136 35.2333 135.47 35.62C135.816 35.9933 135.99 36.4933 135.99 37.12C135.99 38.1333 135.57 38.88 134.73 39.36C133.89 39.84 132.643 40.08 130.99 40.08C130.256 40.08 129.223 40.0533 127.89 40L127.99 37L127.89 29.9L131.95 29.88C133.07 29.88 133.943 30.1 134.57 30.54C135.21 30.98 135.53 31.6133 135.53 32.44C135.53 32.9733 135.39 33.44 135.11 33.84C134.83 34.24 134.43 34.5533 133.91 34.78ZM132.91 32.78C132.91 32.3667 132.763 32.08 132.47 31.92C132.19 31.76 131.69 31.68 130.97 31.68H130.35L130.31 34.06L131.77 34.1C132.156 34.0067 132.443 33.86 132.63 33.66C132.816 33.4467 132.91 33.1533 132.91 32.78ZM131.43 38.32C132.07 38.32 132.556 38.2133 132.89 38C133.236 37.7733 133.41 37.44 133.41 37C133.41 36.68 133.296 36.4267 133.07 36.24C132.843 36.0533 132.496 35.9067 132.03 35.8L130.29 35.84L130.27 36.76L130.31 38.26C130.736 38.3 131.11 38.32 131.43 38.32ZM138.244 37L138.124 29.94L140.704 29.8L140.524 36.18H140.704L144.724 29.88H147.424L147.304 36.76L147.384 40H144.844L144.964 37L144.984 33.68H144.804L140.764 40H138.124L138.244 37ZM156.854 30.1L156.714 32.02L154.674 31.88H154.094L154.034 36.76L154.114 40H151.614L151.714 37L151.674 31.88H151.094L149.014 32.02L148.854 31.82L148.994 29.9H156.714L156.854 30.1ZM163.118 33.62C164.225 33.62 165.065 33.86 165.638 34.34C166.212 34.8067 166.498 35.4933 166.498 36.4C166.498 37.52 166.078 38.4 165.238 39.04C164.412 39.68 163.258 40 161.778 40H158.418L158.558 37L158.418 29.86H160.978L160.918 33.62H163.118ZM162.398 38.26C162.865 38.1667 163.218 37.9933 163.458 37.74C163.712 37.4733 163.838 37.14 163.838 36.74C163.838 36.3133 163.698 35.98 163.418 35.74C163.152 35.4867 162.765 35.3667 162.258 35.38L160.878 35.42L160.858 36.78L160.898 38.18L162.398 38.26ZM175.982 29.76C176.982 29.76 177.915 29.9333 178.782 30.28L178.342 32.4L178.142 32.5C177.835 32.2867 177.475 32.12 177.062 32C176.649 31.88 176.235 31.82 175.822 31.82C175.009 31.82 174.402 32.06 174.002 32.54C173.602 33.0067 173.402 33.7467 173.402 34.76C173.402 36.96 174.249 38.06 175.942 38.06C176.342 38.06 176.755 38.0067 177.182 37.9C177.609 37.7933 177.995 37.6467 178.342 37.46L178.562 37.58L178.362 39.68C177.575 40 176.715 40.16 175.782 40.16C174.142 40.16 172.895 39.72 172.042 38.84C171.189 37.96 170.762 36.6933 170.762 35.04C170.762 33.36 171.215 32.06 172.122 31.14C173.029 30.22 174.315 29.76 175.982 29.76ZM187.518 30.1L187.378 32.02L185.338 31.88H184.758L184.698 36.76L184.778 40H182.278L182.378 37L182.338 31.88H181.758L179.678 32.02L179.518 31.82L179.658 29.9H187.378L187.518 30.1ZM193.403 29.88C194.549 29.88 195.429 30.1533 196.043 30.7C196.656 31.2333 196.963 32.0067 196.963 33.02C196.963 34.1933 196.556 35.1333 195.743 35.84C194.929 36.5467 193.843 36.9 192.483 36.9H191.463L191.563 40H189.043L189.143 37L189.043 29.9L193.403 29.88ZM192.943 35.1C193.409 34.9533 193.756 34.7333 193.983 34.44C194.209 34.1467 194.323 33.7533 194.323 33.26C194.323 32.7533 194.176 32.3733 193.883 32.12C193.603 31.8667 193.163 31.7267 192.562 31.7L191.563 31.74L191.503 35.04L192.943 35.1ZM203.109 29.74C204.629 29.74 205.802 30.1733 206.629 31.04C207.455 31.9067 207.869 33.1333 207.869 34.72C207.869 36.4533 207.415 37.8 206.509 38.76C205.615 39.7067 204.349 40.18 202.709 40.18C201.202 40.18 200.035 39.74 199.209 38.86C198.382 37.9667 197.969 36.7133 197.969 35.1C197.969 33.3933 198.415 32.0733 199.309 31.14C200.202 30.2067 201.469 29.74 203.109 29.74ZM202.889 31.78C202.062 31.78 201.469 32.0067 201.109 32.46C200.762 32.9 200.589 33.6667 200.589 34.76C200.589 35.64 200.662 36.3333 200.809 36.84C200.969 37.3333 201.215 37.6867 201.549 37.9C201.895 38.1133 202.355 38.22 202.929 38.22C203.769 38.22 204.362 38 204.709 37.56C205.069 37.12 205.249 36.3467 205.249 35.24C205.249 34.36 205.169 33.6733 205.009 33.18C204.849 32.6733 204.602 32.3133 204.269 32.1C203.935 31.8867 203.475 31.78 202.889 31.78ZM214.822 34.66C216.035 36.2867 217.355 37.8867 218.782 39.46L218.722 39.76C217.815 39.9867 216.989 40.1267 216.242 40.18L215.922 40.04C214.602 38.2933 213.409 36.6067 212.342 34.98L212.302 36.76L212.402 40H209.882L209.982 37L209.882 29.9H212.442L212.342 34.46L215.102 30.92L215.722 29.9L218.482 29.88L214.822 34.66ZM224.709 37.26L224.809 40H222.289L222.409 37.26L222.389 36.76L218.969 29.9H221.649L221.869 30.64L223.569 34.18H223.709L225.589 30.74L225.909 29.9H228.509L224.729 36.7L224.709 37.26Z" fill="white"/>
<defs>
<filter id="filter0_f_7_29" x="6.16402" y="1.65679" width="58.0229" height="58.5846" filterUnits="userSpaceOnUse" color-interpolation-filters="sRGB">
<feFlood flood-opacity="0" result="BackgroundImageFix"/>
<feBlend mode="normal" in="SourceGraphic" in2="BackgroundImageFix" result="shape"/>
<feGaussianBlur stdDeviation="8" result="effect1_foregroundBlur_7_29"/>
</filter>
<filter id="filter1_b_7_29" x="0.383118" y="-5.7942" width="88.6169" height="89.7942" filterUnits="userSpaceOnUse" color-interpolation-filters="sRGB">
<feFlood flood-opacity="0" result="BackgroundImageFix"/>
<feGaussianBlur in="BackgroundImageFix" stdDeviation="12"/>
<feComposite in2="SourceAlpha" operator="in" result="effect1_backgroundBlur_7_29"/>
<feBlend mode="normal" in="SourceGraphic" in2="effect1_backgroundBlur_7_29" result="shape"/>
</filter>
<filter id="filter2_bd_7_29" x="21.0027" y="15.1674" width="47.3583" height="47.8676" filterUnits="userSpaceOnUse" color-interpolation-filters="sRGB">
<feFlood flood-opacity="0" result="BackgroundImageFix"/>
<feGaussianBlur in="BackgroundImageFix" stdDeviation="7.5"/>
<feComposite in2="SourceAlpha" operator="in" result="effect1_backgroundBlur_7_29"/>
<feColorMatrix in="SourceAlpha" type="matrix" values="0 0 0 0 0 0 0 0 0 0 0 0 0 0 0 0 0 0 127 0" result="hardAlpha"/>
<feOffset dx="5" dy="5"/>
<feGaussianBlur stdDeviation="5"/>
<feColorMatrix type="matrix" values="0 0 0 0 0.454902 0 0 0 0 0.870588 0 0 0 0 0.376471 0 0 0 0.5 0"/>
<feBlend mode="normal" in2="effect1_backgroundBlur_7_29" result="effect2_dropShadow_7_29"/>
<feBlend mode="normal" in="SourceGraphic" in2="effect2_dropShadow_7_29" result="shape"/>
</filter>
<linearGradient id="paint0_linear_7_29" x1="14" y1="18.203" x2="46.5344" y2="38.9975" gradientUnits="userSpaceOnUse">
<stop stop-color="#9BF763"/>
<stop offset="1" stop-color="#26AB5B"/>
</linearGradient>
<linearGradient id="paint1_linear_7_29" x1="31.5303" y1="23.8419" x2="57.0649" y2="54.5314" gradientUnits="userSpaceOnUse">
<stop stop-color="white" stop-opacity="0.25"/>
<stop offset="1" stop-color="white" stop-opacity="0"/>
</linearGradient>
<linearGradient id="paint2_linear_7_29" x1="52.1303" y1="33.3939" x2="32.7936" y2="34.0064" gradientUnits="userSpaceOnUse">
<stop stop-color="white"/>
<stop offset="1" stop-color="white" stop-opacity="0.2"/>
</linearGradient>
<linearGradient id="paint3_linear_7_29" x1="37.8725" y1="36.1611" x2="52.6122" y2="36.2401" gradientUnits="userSpaceOnUse">
<stop stop-color="white"/>
<stop offset="1" stop-color="white" stop-opacity="0"/>
</linearGradient>
</defs>
</svg>
