<svg width="270" height="150" viewBox="0 0 270 150" fill="none" xmlns="http://www.w3.org/2000/svg">
<path d="M250 0H20C8.9543 0 0 8.9543 0 20V130C0 141.046 8.9543 150 20 150H250C261.046 150 270 141.046 270 130V20C270 8.9543 261.046 0 250 0Z" fill="#30353E"/>
<path d="M44.3751 52.8376L28.4287 57.1842C22.1935 58.8837 19.1926 64.4036 20.9664 70.9138L25.0607 85.9404C26.8295 92.4322 32.2151 95.6642 38.4503 93.9647L54.3967 89.6181C60.6318 87.9185 63.6149 82.4055 61.8461 75.9137L57.7518 60.8871C55.978 54.3769 50.6102 51.1381 44.3751 52.8376V52.8376Z" fill="url(#paint0_linear_9_56)"/>
<g filter="url(#filter0_f_9_56)">
<rect width="24.6226" height="25.3004" rx="12.3113" transform="matrix(-0.261154 -0.965297 0.965284 -0.261202 32.2978 87.7396)" fill="#8237FF" fill-opacity="0.5"/>
</g>
<g filter="url(#filter1_b_9_56)">
<path d="M57.1844 61.7821H40.617C34.1391 61.7821 29.7823 66.33 29.7823 73.0946V88.7085C29.7823 95.454 34.1391 100 40.617 100H57.1844C63.6623 100 68 95.454 68 88.7085V73.0946C68 66.33 63.6623 61.7821 57.1844 61.7821V61.7821Z" fill="#BA90FF" fill-opacity="0.35"/>
<path d="M57.1844 61.2821H40.617C37.2566 61.2821 34.4124 62.4645 32.4093 64.5558C30.408 66.6452 29.2823 69.6039 29.2823 73.0946V88.7085C29.2823 92.19 30.4082 95.1435 32.4096 97.2299C34.4127 99.3182 37.2567 100.5 40.617 100.5H57.1844C60.5447 100.5 63.3843 99.3181 65.3827 97.2295C67.3792 95.1428 68.5 92.1894 68.5 88.7085V73.0946C68.5 69.6045 67.3794 66.6459 65.3829 64.5562C63.3845 62.4645 60.5448 61.2821 57.1844 61.2821Z" stroke="url(#paint1_linear_9_56)" stroke-linecap="round" stroke-linejoin="round"/>
</g>
<g filter="url(#filter2_bd_9_56)">
<mask id="path-6-inside-1_9_56" fill="white">
<path fill-rule="evenodd" clip-rule="evenodd" d="M47.2283 73.6122C47.2283 74.5275 47.9736 75.2747 48.8717 75.2747C49.8271 75.2747 50.5724 74.5275 50.5724 73.6122C50.5724 72.6759 49.8271 71.9306 48.9099 71.9306C47.9736 71.9306 47.2283 72.6759 47.2283 73.6122ZM48.8717 89.7787C49.8081 89.7787 50.5533 89.0335 50.5533 88.1162V79.6701C50.5533 78.7509 49.8081 77.9885 48.8717 77.9885C47.9545 77.9885 47.2093 78.7509 47.2093 79.6701V88.1162C47.2093 89.0335 47.9545 89.7787 48.8717 89.7787Z"/>
</mask>
<path fill-rule="evenodd" clip-rule="evenodd" d="M47.2283 73.6122C47.2283 74.5275 47.9736 75.2747 48.8717 75.2747C49.8271 75.2747 50.5724 74.5275 50.5724 73.6122C50.5724 72.6759 49.8271 71.9306 48.9099 71.9306C47.9736 71.9306 47.2283 72.6759 47.2283 73.6122ZM48.8717 89.7787C49.8081 89.7787 50.5533 89.0335 50.5533 88.1162V79.6701C50.5533 78.7509 49.8081 77.9885 48.8717 77.9885C47.9545 77.9885 47.2093 78.7509 47.2093 79.6701V88.1162C47.2093 89.0335 47.9545 89.7787 48.8717 89.7787Z" fill="url(#paint2_linear_9_56)"/>
<path d="M48.8717 74.8747C48.1978 74.8747 47.6283 74.3099 47.6283 73.6122H46.8283C46.8283 74.7451 47.7494 75.6747 48.8717 75.6747V74.8747ZM50.1724 73.6122C50.1724 74.301 49.6119 74.8747 48.8717 74.8747V75.6747C50.0424 75.6747 50.9724 74.754 50.9724 73.6122H50.1724ZM48.9099 72.3306C49.6032 72.3306 50.1724 72.8938 50.1724 73.6122H50.9724C50.9724 72.4579 50.051 71.5306 48.9099 71.5306V72.3306ZM47.6283 73.6122C47.6283 72.8968 48.1945 72.3306 48.9099 72.3306V71.5306C47.7527 71.5306 46.8283 72.4549 46.8283 73.6122H47.6283ZM50.1533 88.1162C50.1533 88.8096 49.5901 89.3787 48.8717 89.3787V90.1787C50.026 90.1787 50.9533 89.2574 50.9533 88.1162H50.1533ZM50.1533 79.6701V88.1162H50.9533V79.6701H50.1533ZM48.8717 78.3885C49.5845 78.3885 50.1533 78.9692 50.1533 79.6701H50.9533C50.9533 78.5327 50.0316 77.5885 48.8717 77.5885V78.3885ZM47.6093 79.6701C47.6093 78.9662 48.181 78.3885 48.8717 78.3885V77.5885C47.728 77.5885 46.8093 78.5357 46.8093 79.6701H47.6093ZM47.6093 88.1162V79.6701H46.8093V88.1162H47.6093ZM48.8717 89.3787C48.1754 89.3787 47.6093 88.8126 47.6093 88.1162H46.8093C46.8093 89.2544 47.7336 90.1787 48.8717 90.1787V89.3787Z" fill="url(#paint3_linear_9_56)" mask="url(#path-6-inside-1_9_56)"/>
</g>
<path d="M90.98 31.96C92.2333 31.96 93.36 32.22 94.36 32.74L93.88 35L93.66 35.1C93.26 34.82 92.82 34.6 92.34 34.44C91.86 34.28 91.3667 34.2 90.86 34.2C88.74 34.2 87.68 35.5933 87.68 38.38C87.68 39.8867 87.9533 41.02 88.5 41.78C89.06 42.5267 89.8733 42.9 90.94 42.9C91.4333 42.9 91.94 42.8267 92.46 42.68C92.9933 42.52 93.4733 42.3067 93.9 42.04L94.14 42.18L93.92 44.48C92.9067 44.9467 91.84 45.18 90.72 45.18C88.8 45.18 87.3333 44.62 86.32 43.5C85.32 42.38 84.82 40.7733 84.82 38.68C84.82 36.5467 85.3533 34.8933 86.42 33.72C87.5 32.5467 89.02 31.96 90.98 31.96ZM101.455 39.66C102.668 41.2867 103.988 42.8867 105.415 44.46L105.355 44.76C104.448 44.9867 103.621 45.1267 102.875 45.18L102.555 45.04C101.235 43.2933 100.041 41.6067 98.9747 39.98L98.9347 41.76L99.0347 45H96.5147L96.6147 42L96.5147 34.9H99.0747L98.9747 39.46L101.735 35.92L102.355 34.9L105.115 34.88L101.455 39.66ZM114.722 41.76L114.822 45H112.282L112.402 42L112.322 36.78H110.502L110.442 37.34C110.202 39.4067 109.935 40.9933 109.642 42.1C109.348 43.2067 108.982 44 108.542 44.48C108.102 44.9467 107.522 45.2 106.802 45.24L106.142 45.26L105.722 43.16C106.255 43.04 106.675 42.7933 106.982 42.42C107.288 42.0333 107.535 41.42 107.722 40.58C107.922 39.7267 108.108 38.4933 108.282 36.88L108.502 34.92L108.482 34.88H114.862L114.722 41.76ZM126.224 45H123.684L123.404 43.54L123.224 42.96L121.184 42.94L119.384 42.98L119.244 43.4L118.944 45H116.484L120.024 34.9H123.004L126.224 45ZM122.684 41.06L121.544 37.2H121.384L120.044 41.06L121.344 41.08L122.684 41.06ZM137.641 42.94V47.54L135.801 47.68L135.441 45H128.841L128.501 47.54L126.621 47.68V42.94H127.481C127.961 42.7267 128.341 42.42 128.621 42.02C128.901 41.6067 129.128 41.0133 129.301 40.24C129.475 39.4667 129.635 38.3533 129.781 36.9L130.021 34.94L130.001 34.9H136.281L136.141 41.76L136.181 42.94H137.641ZM133.801 42.94L133.841 42L133.761 36.76H132.001L131.941 37.34C131.755 38.9533 131.535 40.1867 131.281 41.04C131.041 41.88 130.701 42.5133 130.261 42.94H133.801ZM147.686 39.76C148.393 39.9333 148.913 40.2133 149.246 40.6C149.593 40.9867 149.766 41.4867 149.766 42.1C149.766 43.0733 149.359 43.8267 148.546 44.36C147.746 44.8933 146.613 45.16 145.146 45.16C144.533 45.16 143.946 45.1133 143.386 45.02C142.839 44.9267 142.366 44.7933 141.966 44.62L142.426 42.56L142.606 42.46C142.953 42.6467 143.353 42.8 143.806 42.92C144.259 43.0267 144.706 43.08 145.146 43.08C145.773 43.08 146.273 42.9733 146.646 42.76C147.019 42.5333 147.206 42.2333 147.206 41.86C147.206 41.3267 146.846 40.98 146.126 40.82H143.666L143.506 40.62L143.666 38.92L145.946 38.94C146.199 38.8333 146.399 38.68 146.546 38.48C146.693 38.2667 146.766 38.04 146.766 37.8C146.766 37.4667 146.633 37.2267 146.366 37.08C146.113 36.9333 145.699 36.86 145.126 36.86C144.326 36.86 143.433 37.0267 142.446 37.36L142.206 37.24L142.406 35.18C143.233 34.8867 144.166 34.74 145.206 34.74C146.526 34.74 147.546 34.9733 148.266 35.44C148.986 35.8933 149.346 36.54 149.346 37.38C149.346 37.9133 149.199 38.3867 148.906 38.8C148.626 39.2133 148.219 39.5333 147.686 39.76ZM161.142 41.76L161.242 45H158.722L158.822 42L158.802 41.02L156.542 41L154.522 41.04L154.502 41.76L154.602 45H152.082L152.182 42L152.082 34.9H154.642L154.562 38.9L156.702 38.94L158.782 38.92L158.722 34.9H161.282L161.142 41.76ZM172.63 45H170.09L169.81 43.54L169.63 42.96L167.59 42.94L165.79 42.98L165.65 43.4L165.35 45H162.89L166.43 34.9H169.41L172.63 45ZM169.09 41.06L167.95 37.2H167.79L166.45 41.06L167.75 41.08L169.09 41.06ZM183.388 41.76L183.488 45H180.968L181.068 42L181.048 41.02L178.788 41L176.768 41.04L176.748 41.76L176.848 45H174.328L174.428 42L174.328 34.9H176.888L176.808 38.9L178.948 38.94L181.028 38.92L180.968 34.9H183.528L183.388 41.76ZM186.557 42L186.437 34.94L189.017 34.8L188.837 41.18H189.017L193.037 34.88H195.737L195.617 41.76L195.697 45H193.157L193.277 42L193.297 38.68H193.117L189.077 45H186.437L186.557 42ZM206.623 31.54C206.356 32.1533 205.923 32.6333 205.323 32.98C204.736 33.3267 204.05 33.5 203.263 33.5C202.49 33.5 201.823 33.3333 201.263 33C200.703 32.6667 200.276 32.18 199.983 31.54L201.323 30.62H201.603C201.776 31.1 201.99 31.44 202.243 31.64C202.51 31.84 202.876 31.94 203.343 31.94C203.796 31.94 204.143 31.8467 204.383 31.66C204.636 31.46 204.85 31.1133 205.023 30.62H205.283L206.623 31.54ZM198.783 42L198.663 34.94L201.243 34.8L201.063 41.18H201.243L205.263 34.88H207.963L207.843 41.76L207.923 45H205.383L205.503 42L205.523 38.68H205.343L201.303 45H198.663L198.783 42Z" fill="white"/>
<path d="M91.728 66.2L91.77 69H90.664L90.706 66.298L90.664 60.922H86.618L86.576 66.2L86.618 69H85.512L85.554 66.298L85.512 60.026H91.784L91.728 66.2ZM97.0411 61.944C98.0584 61.944 98.8378 62.2427 99.3791 62.84C99.9298 63.4373 100.205 64.282 100.205 65.374C100.205 66.5593 99.9111 67.4787 99.3231 68.132C98.7444 68.776 97.9138 69.098 96.8311 69.098C95.8231 69.098 95.0438 68.7947 94.4931 68.188C93.9424 67.572 93.6671 66.6993 93.6671 65.57C93.6671 64.4127 93.9611 63.5213 94.5491 62.896C95.1371 62.2613 95.9678 61.944 97.0411 61.944ZM96.9431 62.826C96.2058 62.826 95.6551 63.036 95.2911 63.456C94.9364 63.876 94.7591 64.5387 94.7591 65.444C94.7591 66.4147 94.9364 67.1193 95.2911 67.558C95.6458 67.9967 96.1871 68.216 96.9151 68.216C97.6618 68.216 98.2171 68.0013 98.5811 67.572C98.9451 67.1427 99.1271 66.4707 99.1271 65.556C99.1271 64.6133 98.9451 63.9227 98.5811 63.484C98.2264 63.0453 97.6804 62.826 96.9431 62.826ZM106.366 66.816L106.394 69H105.33L105.372 66.9L105.344 62.84H103.524L103.468 63.4C103.328 64.828 103.169 65.9387 102.992 66.732C102.814 67.5253 102.59 68.104 102.32 68.468C102.049 68.832 101.694 69.0513 101.256 69.126L100.948 69.168L100.738 68.272C101.111 68.16 101.405 67.9407 101.62 67.614C101.844 67.2873 102.021 66.788 102.152 66.116C102.292 65.4347 102.418 64.464 102.53 63.204L102.642 62.028L102.628 62H106.422L106.366 66.816ZM113.265 68.104L113.349 68.188L113.251 69H109.009L109.051 66.9L109.009 62.028H113.279L113.349 62.112L113.265 62.924L111.501 62.868L110.045 62.882L110.031 64.996L111.417 65.01L112.635 64.968L112.705 65.066L112.621 65.892L111.333 65.85L110.031 65.864L110.017 66.816L110.031 68.146L111.403 68.16L113.265 68.104ZM118.165 65.36C119.182 65.584 119.691 66.1393 119.691 67.026C119.691 67.67 119.439 68.1787 118.935 68.552C118.431 68.916 117.745 69.098 116.877 69.098C116.485 69.098 116.107 69.0513 115.743 68.958C115.379 68.8647 115.071 68.7387 114.819 68.58L115.029 67.67L115.113 67.628C115.346 67.8053 115.617 67.9453 115.925 68.048C116.233 68.1413 116.545 68.188 116.863 68.188C117.376 68.188 117.791 68.076 118.109 67.852C118.435 67.6187 118.599 67.3153 118.599 66.942C118.599 66.6433 118.496 66.4007 118.291 66.214C118.085 66.018 117.796 65.8873 117.423 65.822H115.897L115.813 65.724L115.869 64.996L117.367 65.01C117.628 64.9073 117.838 64.7487 117.997 64.534C118.155 64.3193 118.235 64.0813 118.235 63.82C118.235 63.5027 118.118 63.2647 117.885 63.106C117.661 62.9473 117.329 62.868 116.891 62.868C116.265 62.868 115.649 63.0453 115.043 63.4L114.903 63.358L114.987 62.406C115.603 62.0887 116.251 61.93 116.933 61.93C117.679 61.93 118.263 62.084 118.683 62.392C119.112 62.7 119.327 63.12 119.327 63.652C119.327 64.0253 119.224 64.3613 119.019 64.66C118.823 64.9587 118.538 65.192 118.165 65.36ZM127.616 66.816L127.644 69H126.608L126.65 66.9L126.636 65.948L122.842 65.962L122.828 66.816L122.856 69H121.82L121.862 66.9L121.82 62.028H122.87L122.842 65.024L124.732 65.038L126.636 65.024L126.608 62.028H127.658L127.616 66.816ZM135.505 69H134.455L134.287 68.244L133.923 67.208L132.257 67.194L130.773 67.208L130.395 68.188L130.199 69H129.163L131.851 62.028H133.055L135.505 69ZM133.629 66.354L132.467 63.05H132.383L131.109 66.354L132.341 66.368L133.629 66.354ZM141.128 66.9L141.184 69H140.106L140.134 66.816V66.48H138.846C138.361 67.32 137.819 68.1647 137.222 69.014L137.096 69.098C136.741 69.07 136.401 68.9953 136.074 68.874L136.06 68.748C136.741 67.9453 137.39 67.1147 138.006 66.256C137.511 66.0507 137.133 65.7753 136.872 65.43C136.611 65.0847 136.48 64.6787 136.48 64.212C136.48 63.54 136.713 63.0033 137.18 62.602C137.656 62.1913 138.272 61.986 139.028 61.986L141.184 62L141.128 66.9ZM140.12 65.598L140.106 62.868L139.07 62.826C138.613 62.8353 138.253 62.9567 137.992 63.19C137.731 63.4233 137.6 63.7593 137.6 64.198C137.6 64.9633 138.015 65.444 138.846 65.64L140.12 65.598ZM146.129 66.9L146.073 62.042L147.165 61.972L147.095 67.32H147.193L150.819 62H151.967L151.911 66.816L151.953 69H150.875L150.917 66.9V63.68H150.833L147.179 69H146.073L146.129 66.9ZM160.36 66.816L160.388 69H159.352L159.394 66.9L159.38 65.948L155.586 65.962L155.572 66.816L155.6 69H154.564L154.606 66.9L154.564 62.028H155.614L155.586 65.024L157.476 65.038L159.38 65.024L159.352 62.028H160.402L160.36 66.816ZM169.999 65.43C169.999 67.2687 168.851 68.2627 166.555 68.412L166.569 69.266H165.575L165.589 68.412C164.46 68.3653 163.601 68.104 163.013 67.628C162.435 67.152 162.145 66.466 162.145 65.57C162.145 64.6367 162.435 63.932 163.013 63.456C163.592 62.9707 164.446 62.6953 165.575 62.63V61.776H166.583L166.569 62.63C168.856 62.7327 169.999 63.666 169.999 65.43ZM166.555 67.614C167.358 67.558 167.96 67.3573 168.361 67.012C168.763 66.6667 168.963 66.1673 168.963 65.514C168.963 64.842 168.767 64.3427 168.375 64.016C167.993 63.68 167.391 63.4887 166.569 63.442L166.541 66.83L166.555 67.614ZM163.153 65.528C163.153 66.1907 163.354 66.6947 163.755 67.04C164.166 67.376 164.782 67.5673 165.603 67.614L165.617 66.914L165.589 63.442C164.777 63.498 164.166 63.6987 163.755 64.044C163.354 64.38 163.153 64.8747 163.153 65.528ZM174.451 61.944C175.469 61.944 176.248 62.2427 176.789 62.84C177.34 63.4373 177.615 64.282 177.615 65.374C177.615 66.5593 177.321 67.4787 176.733 68.132C176.155 68.776 175.324 69.098 174.241 69.098C173.233 69.098 172.454 68.7947 171.903 68.188C171.353 67.572 171.077 66.6993 171.077 65.57C171.077 64.4127 171.371 63.5213 171.959 62.896C172.547 62.2613 173.378 61.944 174.451 61.944ZM174.353 62.826C173.616 62.826 173.065 63.036 172.701 63.456C172.347 63.876 172.169 64.5387 172.169 65.444C172.169 66.4147 172.347 67.1193 172.701 67.558C173.056 67.9967 173.597 68.216 174.325 68.216C175.072 68.216 175.627 68.0013 175.991 67.572C176.355 67.1427 176.537 66.4707 176.537 65.556C176.537 64.6133 176.355 63.9227 175.991 63.484C175.637 63.0453 175.091 62.826 174.353 62.826ZM181.95 62.014C182.687 62.014 183.252 62.1913 183.644 62.546C184.045 62.9007 184.246 63.414 184.246 64.086C184.246 64.87 183.994 65.486 183.49 65.934C182.995 66.3727 182.309 66.592 181.432 66.592H180.578V66.816L180.606 69H179.57L179.612 66.9L179.57 62.028L181.95 62.014ZM181.768 65.78C182.692 65.6213 183.154 65.0847 183.154 64.17C183.154 63.7313 183.028 63.4047 182.776 63.19C182.533 62.9753 182.164 62.8587 181.67 62.84L180.606 62.854L180.592 65.752L181.768 65.78ZM193.375 69H192.437L192.283 66.872L191.905 63.652H191.821L189.819 68.216H188.993L187.103 63.652H187.019L186.655 66.788L186.459 69H185.563L186.333 62.028H187.551L187.901 63.078L189.427 66.83H189.511L191.107 63.022L191.471 62.028H192.661L193.375 69ZM200.898 69H199.848L199.68 68.244L199.316 67.208L197.65 67.194L196.166 67.208L195.788 68.188L195.592 69H194.556L197.244 62.028H198.448L200.898 69ZM199.022 66.354L197.86 63.05H197.776L196.502 66.354L197.734 66.368L199.022 66.354ZM209.05 70.554L208.224 70.624L208.07 69H202.554L202.596 66.9L202.554 62H203.632L203.576 66.816L203.604 68.104H206.894L206.922 66.9L206.866 62H207.958L207.902 66.816L207.93 68.104H209.05V70.554ZM210.989 66.9L210.933 62.042L212.025 61.972L211.955 67.32H212.053L215.679 62H216.827L216.771 66.816L216.813 69H215.735L215.777 66.9V63.68H215.693L212.039 69H210.933L210.989 66.9ZM223.665 66.9L223.721 69H222.643L222.671 66.816V66.48H221.383C220.898 67.32 220.356 68.1647 219.759 69.014L219.633 69.098C219.278 69.07 218.938 68.9953 218.611 68.874L218.597 68.748C219.278 67.9453 219.927 67.1147 220.543 66.256C220.048 66.0507 219.67 65.7753 219.409 65.43C219.148 65.0847 219.017 64.6787 219.017 64.212C219.017 63.54 219.25 63.0033 219.717 62.602C220.193 62.1913 220.809 61.986 221.565 61.986L223.721 62L223.665 66.9ZM222.657 65.598L222.643 62.868L221.607 62.826C221.15 62.8353 220.79 62.9567 220.529 63.19C220.268 63.4233 220.137 63.7593 220.137 64.198C220.137 64.9633 220.552 65.444 221.383 65.64L222.657 65.598ZM234.406 68.118V70.736L233.622 70.82L233.468 69H228.414L228.26 70.736L227.448 70.82V68.118H228.078C228.386 67.95 228.634 67.6933 228.82 67.348C229.016 67.0027 229.17 66.5127 229.282 65.878C229.404 65.234 229.516 64.3473 229.618 63.218L229.744 62.056L229.73 62.028H233.44L233.384 66.816L233.412 68.118H234.406ZM232.418 66.9L232.376 62.826H230.598L230.542 63.4C230.412 64.8187 230.248 65.8827 230.052 66.592C229.856 67.292 229.576 67.8007 229.212 68.118H232.39L232.418 66.9ZM241.088 66.816L241.116 69H240.052L240.094 66.9L240.066 62.84H238.246L238.19 63.4C238.05 64.828 237.892 65.9387 237.714 66.732C237.537 67.5253 237.313 68.104 237.042 68.468C236.772 68.832 236.417 69.0513 235.978 69.126L235.67 69.168L235.46 68.272C235.834 68.16 236.128 67.9407 236.342 67.614C236.566 67.2873 236.744 66.788 236.874 66.116C237.014 65.4347 237.14 64.464 237.252 63.204L237.364 62.028L237.35 62H241.144L241.088 66.816ZM247.974 66.9L248.03 69H246.952L246.98 66.816V66.48H245.692C245.206 67.32 244.665 68.1647 244.068 69.014L243.942 69.098C243.587 69.07 243.246 68.9953 242.92 68.874L242.906 68.748C243.587 67.9453 244.236 67.1147 244.852 66.256C244.357 66.0507 243.979 65.7753 243.718 65.43C243.456 65.0847 243.326 64.6787 243.326 64.212C243.326 63.54 243.559 63.0033 244.026 62.602C244.502 62.1913 245.118 61.986 245.874 61.986L248.03 62L247.974 66.9ZM246.966 65.598L246.952 62.868L245.916 62.826C245.458 62.8353 245.099 62.9567 244.838 63.19C244.576 63.4233 244.446 63.7593 244.446 64.198C244.446 64.9633 244.861 65.444 245.692 65.64L246.966 65.598ZM87.682 79.014C88.4193 79.014 88.984 79.1913 89.376 79.546C89.7773 79.9007 89.978 80.414 89.978 81.086C89.978 81.87 89.726 82.486 89.222 82.934C88.7273 83.3727 88.0413 83.592 87.164 83.592H86.31V83.816L86.338 86H85.302L85.344 83.9L85.302 79.028L87.682 79.014ZM87.5 82.78C88.424 82.6213 88.886 82.0847 88.886 81.17C88.886 80.7313 88.76 80.4047 88.508 80.19C88.2653 79.9753 87.8967 79.8587 87.402 79.84L86.338 79.854L86.324 82.752L87.5 82.78ZM96.2122 86H95.1622L94.9942 85.244L94.6302 84.208L92.9642 84.194L91.4802 84.208L91.1022 85.188L90.9062 86H89.8702L92.5582 79.028H93.7622L96.2122 86ZM94.3362 83.354L93.1742 80.05H93.0902L91.8162 83.354L93.0482 83.368L94.3362 83.354ZM100.542 81.898C101.289 81.898 101.854 82.0567 102.236 82.374C102.628 82.6913 102.824 83.1533 102.824 83.76C102.824 84.4693 102.554 85.02 102.012 85.412C101.48 85.804 100.729 86 99.7584 86H97.8684L97.9104 83.9L97.8684 79H102.488L102.53 79.098L102.474 79.896L100.64 79.868H98.9324L98.9184 81.898H100.542ZM100.164 85.23C100.668 85.1833 101.051 85.0433 101.312 84.81C101.574 84.5767 101.704 84.2687 101.704 83.886C101.704 83.494 101.574 83.1953 101.312 82.99C101.06 82.7753 100.687 82.668 100.192 82.668L98.9044 82.682L98.8904 83.816L98.9184 85.188L100.164 85.23ZM107.596 78.944C108.613 78.944 109.392 79.2427 109.934 79.84C110.484 80.4373 110.76 81.282 110.76 82.374C110.76 83.5593 110.466 84.4787 109.878 85.132C109.299 85.776 108.468 86.098 107.386 86.098C106.378 86.098 105.598 85.7947 105.048 85.188C104.497 84.572 104.222 83.6993 104.222 82.57C104.222 81.4127 104.516 80.5213 105.104 79.896C105.692 79.2613 106.522 78.944 107.596 78.944ZM107.498 79.826C106.76 79.826 106.21 80.036 105.846 80.456C105.491 80.876 105.314 81.5387 105.314 82.444C105.314 83.4147 105.491 84.1193 105.846 84.558C106.2 84.9967 106.742 85.216 107.47 85.216C108.216 85.216 108.772 85.0013 109.136 84.572C109.5 84.1427 109.682 83.4707 109.682 82.556C109.682 81.6133 109.5 80.9227 109.136 80.484C108.781 80.0453 108.235 79.826 107.498 79.826ZM116.158 79.112L116.088 79.994L114.786 79.896H114.086L114.044 83.816L114.086 86H113.036L113.078 83.9L113.05 79.896H112.35L111.02 79.994L110.936 79.896L111.02 79.028H116.102L116.158 79.112ZM119.864 81.828C120.536 81.828 121.05 81.9913 121.404 82.318C121.759 82.6353 121.936 83.0973 121.936 83.704C121.936 84.432 121.689 84.9967 121.194 85.398C120.7 85.7993 120 86 119.094 86H117.358L117.414 83.9L117.358 79H118.45L118.422 81.828H119.864ZM124.302 83.816L124.33 86H123.294L123.336 83.9L123.294 79.028H124.344L124.302 83.816ZM119.486 85.23C119.925 85.174 120.256 85.0293 120.48 84.796C120.714 84.5533 120.83 84.236 120.83 83.844C120.83 83.452 120.714 83.1487 120.48 82.934C120.256 82.71 119.934 82.6027 119.514 82.612L118.408 82.626L118.394 83.816L118.422 85.188L119.486 85.23ZM131.945 78.958C132.72 78.958 133.392 79.1213 133.961 79.448L133.765 80.414L133.639 80.456C133.406 80.26 133.135 80.106 132.827 79.994C132.519 79.882 132.188 79.826 131.833 79.826C131.142 79.826 130.615 80.05 130.251 80.498C129.887 80.9367 129.705 81.5947 129.705 82.472C129.705 83.3587 129.887 84.0353 130.251 84.502C130.615 84.9687 131.142 85.202 131.833 85.202C132.169 85.202 132.505 85.146 132.841 85.034C133.186 84.9127 133.494 84.754 133.765 84.558L133.891 84.6L133.793 85.566C133.158 85.9113 132.491 86.084 131.791 86.084C130.764 86.084 129.976 85.7807 129.425 85.174C128.874 84.558 128.599 83.6853 128.599 82.556C128.599 81.408 128.888 80.5213 129.467 79.896C130.055 79.2707 130.881 78.958 131.945 78.958ZM145.633 86H144.695L144.541 83.872L144.163 80.652H144.079L142.077 85.216H141.251L139.361 80.652H139.277L138.913 83.788L138.717 86H137.821L138.591 79.028H139.809L140.159 80.078L141.685 83.83H141.769L143.365 80.022L143.729 79.028H144.919L145.633 86ZM153.156 86H152.106L151.938 85.244L151.574 84.208L149.908 84.194L148.424 84.208L148.046 85.188L147.85 86H146.814L149.502 79.028H150.706L153.156 86ZM151.28 83.354L150.118 80.05H150.034L148.76 83.354L149.992 83.368L151.28 83.354ZM157.108 79.014C157.845 79.014 158.41 79.1913 158.802 79.546C159.203 79.9007 159.404 80.414 159.404 81.086C159.404 81.87 159.152 82.486 158.648 82.934C158.153 83.3727 157.467 83.592 156.59 83.592H155.736V83.816L155.764 86H154.728L154.77 83.9L154.728 79.028L157.108 79.014ZM156.926 82.78C157.85 82.6213 158.312 82.0847 158.312 81.17C158.312 80.7313 158.186 80.4047 157.934 80.19C157.691 79.9753 157.322 79.8587 156.828 79.84L155.764 79.854L155.75 82.752L156.926 82.78ZM163.339 82.29C164.329 83.5033 165.379 84.6607 166.489 85.762L166.461 85.916C166.172 86.0093 165.836 86.0793 165.453 86.126L165.285 86.056C164.091 84.712 163.059 83.48 162.191 82.36V82.276L164.599 79.644L165.061 79.028L166.307 79.014L163.339 82.29ZM162.079 83.816L162.107 86H161.071L161.113 83.9L161.071 79.028H162.121L162.079 83.816ZM172.287 85.104L172.371 85.188L172.273 86H168.031L168.073 83.9L168.031 79.028H172.301L172.371 79.112L172.287 79.924L170.523 79.868L169.067 79.882L169.053 81.996L170.439 82.01L171.657 81.968L171.727 82.066L171.643 82.892L170.355 82.85L169.053 82.864L169.039 83.816L169.053 85.146L170.425 85.16L172.287 85.104ZM178.46 79.112L178.39 79.994L177.088 79.896H176.388L176.346 83.816L176.388 86H175.338L175.38 83.9L175.352 79.896H174.652L173.322 79.994L173.238 79.896L173.322 79.028H178.404L178.46 79.112ZM185.135 83.816L185.177 86H184.113L184.141 83.9L184.113 79.854H180.907L180.879 83.816L180.907 86H179.843L179.885 83.9L179.843 79H185.191L185.135 83.816ZM192.252 83.816L192.28 86H191.216L191.258 83.9L191.23 79.84H189.41L189.354 80.4C189.214 81.828 189.056 82.9387 188.878 83.732C188.701 84.5253 188.477 85.104 188.206 85.468C187.936 85.832 187.581 86.0513 187.142 86.126L186.834 86.168L186.624 85.272C186.998 85.16 187.292 84.9407 187.506 84.614C187.73 84.2873 187.908 83.788 188.038 83.116C188.178 82.4347 188.304 81.464 188.416 80.204L188.528 79.028L188.514 79H192.308L192.252 83.816ZM199.152 85.104L199.236 85.188L199.138 86H194.896L194.938 83.9L194.896 79.028H199.166L199.236 79.112L199.152 79.924L197.388 79.868L195.932 79.882L195.918 81.996L197.304 82.01L198.522 81.968L198.592 82.066L198.508 82.892L197.22 82.85L195.918 82.864L195.904 83.816L195.918 85.146L197.29 85.16L199.152 85.104ZM206.222 76.76C206.072 77.152 205.82 77.4553 205.466 77.67C205.111 77.8753 204.696 77.978 204.22 77.978C203.744 77.978 203.338 77.8753 203.002 77.67C202.666 77.4647 202.418 77.1613 202.26 76.76L202.82 76.368H202.974C203.067 76.6853 203.216 76.9187 203.422 77.068C203.627 77.208 203.902 77.278 204.248 77.278C204.593 77.278 204.864 77.208 205.06 77.068C205.265 76.9187 205.419 76.6853 205.522 76.368H205.662L206.222 76.76ZM201.364 83.9L201.308 79.042L202.4 78.972L202.33 84.32H202.428L206.054 79H207.202L207.146 83.816L207.188 86H206.11L206.152 83.9V80.68H206.068L202.414 86H201.308L201.364 83.9ZM212.254 78.958C213.028 78.958 213.7 79.1213 214.27 79.448L214.074 80.414L213.948 80.456C213.714 80.26 213.444 80.106 213.136 79.994C212.828 79.882 212.496 79.826 212.142 79.826C211.451 79.826 210.924 80.05 210.56 80.498C210.196 80.9367 210.014 81.5947 210.014 82.472C210.014 83.3587 210.196 84.0353 210.56 84.502C210.924 84.9687 211.451 85.202 212.142 85.202C212.478 85.202 212.814 85.146 213.15 85.034C213.495 84.9127 213.803 84.754 214.074 84.558L214.2 84.6L214.102 85.566C213.467 85.9113 212.8 86.084 212.1 86.084C211.073 86.084 210.284 85.7807 209.734 85.174C209.183 84.558 208.908 83.6853 208.908 82.556C208.908 81.408 209.197 80.5213 209.776 79.896C210.364 79.2707 211.19 78.958 212.254 78.958ZM221.433 86H220.383L220.215 85.244L219.851 84.208L218.185 84.194L216.701 84.208L216.323 85.188L216.127 86H215.091L217.779 79.028H218.983L221.433 86ZM219.557 83.354L218.395 80.05H218.311L217.037 83.354L218.269 83.368L219.557 83.354ZM230.453 86H229.515L229.361 83.872L228.983 80.652H228.899L226.897 85.216H226.071L224.181 80.652H224.097L223.733 83.788L223.537 86H222.641L223.411 79.028H224.629L224.979 80.078L226.505 83.83H226.589L228.185 80.022L228.549 79.028H229.739L230.453 86ZM232.768 83.9L232.712 79.042L233.804 78.972L233.734 84.32H233.832L237.458 79H238.606L238.55 83.816L238.592 86H237.514L237.556 83.9V80.68H237.472L233.818 86H232.712L232.768 83.9ZM241.101 84.768C241.287 84.768 241.437 84.824 241.549 84.936C241.661 85.048 241.717 85.202 241.717 85.398C241.717 85.6033 241.656 85.7667 241.535 85.888C241.423 86.0093 241.264 86.07 241.059 86.07C240.863 86.07 240.709 86.014 240.597 85.902C240.494 85.79 240.443 85.6313 240.443 85.426C240.443 85.23 240.499 85.0713 240.611 84.95C240.732 84.8287 240.895 84.768 241.101 84.768ZM89.264 98.324C90.5333 98.576 91.168 99.2993 91.168 100.494C91.168 101.343 90.86 101.983 90.244 102.412C89.628 102.841 88.7087 103.056 87.486 103.056C86.6647 103.056 86.0067 103.037 85.512 103H85.498L85.568 100.298L85.498 94.026L87.99 94.012C88.83 94.012 89.474 94.1987 89.922 94.572C90.3793 94.9453 90.608 95.4867 90.608 96.196C90.608 96.7 90.4913 97.134 90.258 97.498C90.0247 97.862 89.6933 98.1373 89.264 98.324ZM89.46 96.322C89.46 95.8367 89.3247 95.4867 89.054 95.272C88.7927 95.048 88.3633 94.936 87.766 94.936H86.632L86.604 97.946L88.144 97.988C89.0213 97.7827 89.46 97.2273 89.46 96.322ZM87.654 102.118C88.4193 102.118 89.0073 101.973 89.418 101.684C89.8287 101.395 90.034 100.979 90.034 100.438C90.034 99.5233 89.46 99.0007 88.312 98.87L86.59 98.884L86.576 100.2L86.618 102.076C86.982 102.104 87.3273 102.118 87.654 102.118ZM93.26 100.9L93.204 96.042L94.296 95.972L94.226 101.32H94.324L97.95 96H99.098L99.042 100.816L99.084 103H98.006L98.048 100.9V97.68H97.964L94.31 103H93.204L93.26 100.9ZM107.477 102.118V104.736L106.693 104.82L106.539 103H101.485L101.331 104.736L100.519 104.82V102.118H101.149C101.457 101.95 101.704 101.693 101.891 101.348C102.087 101.003 102.241 100.513 102.353 99.878C102.474 99.234 102.586 98.3473 102.689 97.218L102.815 96.056L102.801 96.028H106.511L106.455 100.816L106.483 102.118H107.477ZM105.489 100.9L105.447 96.826H103.669L103.613 97.4C103.482 98.8187 103.319 99.8827 103.123 100.592C102.927 101.292 102.647 101.801 102.283 102.118H105.461L105.489 100.9ZM113.634 102.104L113.718 102.188L113.62 103H109.378L109.42 100.9L109.378 96.028H113.648L113.718 96.112L113.634 96.924L111.87 96.868L110.414 96.882L110.4 98.996L111.786 99.01L113.004 98.968L113.074 99.066L112.99 99.892L111.702 99.85L110.4 99.864L110.386 100.816L110.4 102.146L111.772 102.16L113.634 102.104ZM118.287 95.944C119.305 95.944 120.084 96.2427 120.625 96.84C121.176 97.4373 121.451 98.282 121.451 99.374C121.451 100.559 121.157 101.479 120.569 102.132C119.991 102.776 119.16 103.098 118.077 103.098C117.069 103.098 116.29 102.795 115.739 102.188C115.189 101.572 114.913 100.699 114.913 99.57C114.913 98.4127 115.207 97.5213 115.795 96.896C116.383 96.2613 117.214 95.944 118.287 95.944ZM118.189 96.826C117.452 96.826 116.901 97.036 116.537 97.456C116.183 97.876 116.005 98.5387 116.005 99.444C116.005 100.415 116.183 101.119 116.537 101.558C116.892 101.997 117.433 102.216 118.161 102.216C118.908 102.216 119.463 102.001 119.827 101.572C120.191 101.143 120.373 100.471 120.373 99.556C120.373 98.6133 120.191 97.9227 119.827 97.484C119.473 97.0453 118.927 96.826 118.189 96.826ZM123.266 101.782C123.658 102.025 123.854 102.337 123.854 102.72C123.854 103.327 123.416 103.952 122.538 104.596L122.16 104.246V104.148C122.674 103.747 122.93 103.336 122.93 102.916C122.93 102.664 122.786 102.445 122.496 102.258V102.146C122.758 101.969 123.014 101.847 123.266 101.782ZM132.668 100.816L132.71 103H131.618L131.674 100.9L131.66 99.948H131.562C131.077 100.359 130.526 100.643 129.91 100.802C129.154 100.802 128.594 100.643 128.23 100.326C127.875 99.9993 127.693 99.5 127.684 98.828L127.656 96H128.748L128.734 98.534C128.734 98.9447 128.837 99.2667 129.042 99.5C129.257 99.724 129.551 99.836 129.924 99.836C130.213 99.836 130.507 99.7707 130.806 99.64C131.105 99.5 131.385 99.304 131.646 99.052L131.618 96H132.724L132.668 100.816ZM139.57 102.104L139.654 102.188L139.556 103H135.314L135.356 100.9L135.314 96.028H139.584L139.654 96.112L139.57 96.924L137.806 96.868L136.35 96.882L136.336 98.996L137.722 99.01L138.94 98.968L139.01 99.066L138.926 99.892L137.638 99.85L136.336 99.864L136.322 100.816L136.336 102.146L137.708 102.16L139.57 102.104ZM143.994 99.29C144.983 100.503 146.033 101.661 147.144 102.762L147.116 102.916C146.826 103.009 146.49 103.079 146.108 103.126L145.94 103.056C144.745 101.712 143.714 100.48 142.846 99.36V99.276L145.254 96.644L145.716 96.028L146.962 96.014L143.994 99.29ZM142.734 100.816L142.762 103H141.726L141.768 100.9L141.726 96.028H142.776L142.734 100.816ZM150.441 98.898V99.598L147.067 100.088L146.955 99.976V99.276L150.343 98.8L150.441 98.898ZM156.61 100.816L156.638 103H155.574L155.616 100.9L155.588 96.84H153.768L153.712 97.4C153.572 98.828 153.413 99.9387 153.236 100.732C153.058 101.525 152.834 102.104 152.564 102.468C152.293 102.832 151.938 103.051 151.5 103.126L151.192 103.168L150.982 102.272C151.355 102.16 151.649 101.941 151.864 101.614C152.088 101.287 152.265 100.788 152.396 100.116C152.536 99.4347 152.662 98.464 152.774 97.204L152.886 96.028L152.872 96H156.666L156.61 100.816ZM159.295 100.9L159.239 96.042L160.331 95.972L160.261 101.32H160.359L163.985 96H165.133L165.077 100.816L165.119 103H164.041L164.083 100.9V97.68H163.999L160.345 103H159.239L159.295 100.9ZM170.185 95.958C170.96 95.958 171.632 96.1213 172.201 96.448L172.005 97.414L171.879 97.456C171.646 97.26 171.375 97.106 171.067 96.994C170.759 96.882 170.428 96.826 170.073 96.826C169.383 96.826 168.855 97.05 168.491 97.498C168.127 97.9367 167.945 98.5947 167.945 99.472C167.945 100.359 168.127 101.035 168.491 101.502C168.855 101.969 169.383 102.202 170.073 102.202C170.409 102.202 170.745 102.146 171.081 102.034C171.427 101.913 171.735 101.754 172.005 101.558L172.131 101.6L172.033 102.566C171.399 102.911 170.731 103.084 170.031 103.084C169.005 103.084 168.216 102.781 167.665 102.174C167.115 101.558 166.839 100.685 166.839 99.556C166.839 98.408 167.129 97.5213 167.707 96.896C168.295 96.2707 169.121 95.958 170.185 95.958ZM178.119 96.112L178.049 96.994L176.747 96.896H176.047L176.005 100.816L176.047 103H174.997L175.039 100.9L175.011 96.896H174.311L172.981 96.994L172.897 96.896L172.981 96.028H178.063L178.119 96.112ZM181.825 98.828C182.497 98.828 183.011 98.9913 183.365 99.318C183.72 99.6353 183.897 100.097 183.897 100.704C183.897 101.432 183.65 101.997 183.155 102.398C182.661 102.799 181.961 103 181.055 103H179.319L179.375 100.9L179.319 96H180.411L180.383 98.828H181.825ZM186.263 100.816L186.291 103H185.255L185.297 100.9L185.255 96.028H186.305L186.263 100.816ZM181.447 102.23C181.886 102.174 182.217 102.029 182.441 101.796C182.675 101.553 182.791 101.236 182.791 100.844C182.791 100.452 182.675 100.149 182.441 99.934C182.217 99.71 181.895 99.6027 181.475 99.612L180.369 99.626L180.355 100.816L180.383 102.188L181.447 102.23ZM188.96 101.782C189.352 102.025 189.548 102.337 189.548 102.72C189.548 103.327 189.109 103.952 188.232 104.596L187.854 104.246V104.148C188.367 103.747 188.624 103.336 188.624 102.916C188.624 102.664 188.479 102.445 188.19 102.258V102.146C188.451 101.969 188.708 101.847 188.96 101.782ZM196.681 95.958C197.456 95.958 198.128 96.1213 198.697 96.448L198.501 97.414L198.375 97.456C198.142 97.26 197.871 97.106 197.563 96.994C197.255 96.882 196.924 96.826 196.569 96.826C195.879 96.826 195.351 97.05 194.987 97.498C194.623 97.9367 194.441 98.5947 194.441 99.472C194.441 100.359 194.623 101.035 194.987 101.502C195.351 101.969 195.879 102.202 196.569 102.202C196.905 102.202 197.241 102.146 197.577 102.034C197.923 101.913 198.231 101.754 198.501 101.558L198.627 101.6L198.529 102.566C197.895 102.911 197.227 103.084 196.527 103.084C195.501 103.084 194.712 102.781 194.161 102.174C193.611 101.558 193.335 100.685 193.335 99.556C193.335 98.408 193.625 97.5213 194.203 96.896C194.791 96.2707 195.617 95.958 196.681 95.958ZM204.615 96.112L204.545 96.994L203.243 96.896H202.543L202.501 100.816L202.543 103H201.493L201.535 100.9L201.507 96.896H200.807L199.477 96.994L199.393 96.896L199.477 96.028H204.559L204.615 96.112ZM210.482 103H209.432L209.264 102.244L208.9 101.208L207.234 101.194L205.75 101.208L205.372 102.188L205.176 103H204.14L206.828 96.028H208.032L210.482 103ZM208.606 100.354L207.444 97.05H207.36L206.086 100.354L207.318 100.368L208.606 100.354ZM215.292 96.112L215.222 96.994L213.92 96.896H213.22L213.178 100.816L213.22 103H212.17L212.212 100.9L212.184 96.896H211.484L210.154 96.994L210.07 96.896L210.154 96.028H215.236L215.292 96.112ZM219.377 98.828C220.096 98.828 220.642 98.9913 221.015 99.318C221.398 99.6353 221.589 100.097 221.589 100.704C221.589 101.432 221.328 101.997 220.805 102.398C220.292 102.799 219.564 103 218.621 103H216.759L216.801 100.9L216.759 96H217.837L217.809 98.828H219.377ZM218.999 102.23C219.484 102.174 219.848 102.029 220.091 101.796C220.343 101.553 220.469 101.236 220.469 100.844C220.469 100.452 220.343 100.149 220.091 99.934C219.848 99.71 219.494 99.6027 219.027 99.612L217.795 99.626L217.781 100.816L217.809 102.188L218.999 102.23ZM223.498 100.9L223.442 96.042L224.534 95.972L224.464 101.32H224.562L228.188 96H229.336L229.28 100.816L229.322 103H228.244L228.286 100.9V97.68H228.202L224.548 103H223.442L223.498 100.9ZM234.285 100.9L234.229 96.042L235.321 95.972L235.251 101.32H235.349L238.975 96H240.123L240.067 100.816L240.109 103H239.031L239.073 100.9V97.68H238.989L235.335 103H234.229L234.285 100.9ZM85.344 117.9L85.288 113.042L86.38 112.972L86.31 118.32H86.408L90.034 113H91.182L91.126 117.816L91.168 120H90.09L90.132 117.9V114.68H90.048L86.394 120H85.288L85.344 117.9ZM99.5746 117.816L99.6026 120H98.5666L98.6086 117.9L98.5946 116.948L94.8006 116.962L94.7866 117.816L94.8146 120H93.7786L93.8206 117.9L93.7786 113.028H94.8286L94.8006 116.024L96.6906 116.038L98.5946 116.024L98.5666 113.028H99.6166L99.5746 117.816ZM104.67 112.958C105.444 112.958 106.116 113.121 106.686 113.448L106.49 114.414L106.364 114.456C106.13 114.26 105.86 114.106 105.552 113.994C105.244 113.882 104.912 113.826 104.558 113.826C103.867 113.826 103.34 114.05 102.976 114.498C102.612 114.937 102.43 115.595 102.43 116.472C102.43 117.359 102.612 118.035 102.976 118.502C103.34 118.969 103.867 119.202 104.558 119.202C104.894 119.202 105.23 119.146 105.566 119.034C105.911 118.913 106.219 118.754 106.49 118.558L106.616 118.6L106.518 119.566C105.883 119.911 105.216 120.084 104.516 120.084C103.489 120.084 102.7 119.781 102.15 119.174C101.599 118.558 101.324 117.685 101.324 116.556C101.324 115.408 101.613 114.521 102.192 113.896C102.78 113.271 103.606 112.958 104.67 112.958ZM112.603 113.112L112.533 113.994L111.231 113.896H110.531L110.489 117.816L110.531 120H109.481L109.523 117.9L109.495 113.896H108.795L107.465 113.994L107.381 113.896L107.465 113.028H112.547L112.603 113.112ZM116.366 113.014C117.103 113.014 117.668 113.191 118.06 113.546C118.461 113.901 118.662 114.414 118.662 115.086C118.662 115.87 118.41 116.486 117.906 116.934C117.411 117.373 116.725 117.592 115.848 117.592H114.994V117.816L115.022 120H113.986L114.028 117.9L113.986 113.028L116.366 113.014ZM116.184 116.78C117.108 116.621 117.57 116.085 117.57 115.17C117.57 114.731 117.444 114.405 117.192 114.19C116.949 113.975 116.58 113.859 116.086 113.84L115.022 113.854L115.008 116.752L116.184 116.78ZM122.443 117.998L122.485 120H121.435L121.491 117.998L121.477 117.564L119.111 113.028H120.259L120.399 113.434L121.967 116.43H122.037L123.745 113.476L123.927 113.028H125.047L122.457 117.564L122.443 117.998ZM128.654 116.29C129.643 117.503 130.693 118.661 131.804 119.762L131.776 119.916C131.486 120.009 131.15 120.079 130.768 120.126L130.6 120.056C129.405 118.712 128.374 117.48 127.506 116.36V116.276L129.914 113.644L130.376 113.028L131.622 113.014L128.654 116.29ZM127.394 117.816L127.422 120H126.386L126.428 117.9L126.386 113.028H127.436L127.394 117.816ZM139.925 121.554L139.099 121.624L138.945 120H133.429L133.471 117.9L133.429 113H134.507L134.451 117.816L134.479 119.104H137.769L137.797 117.9L137.741 113H138.833L138.777 117.816L138.805 119.104H139.925V121.554ZM141.864 117.9L141.808 113.042L142.9 112.972L142.83 118.32H142.928L146.554 113H147.702L147.646 117.816L147.688 120H146.61L146.652 117.9V114.68H146.568L142.914 120H141.808L141.864 117.9ZM150.34 117.9L150.284 113.042L151.376 112.972L151.306 118.32H151.404L155.03 113H156.178L156.122 117.816L156.164 120H155.086L155.128 117.9V114.68H155.044L151.39 120H150.284L150.34 117.9ZM158.673 118.768C158.859 118.768 159.009 118.824 159.121 118.936C159.233 119.048 159.289 119.202 159.289 119.398C159.289 119.603 159.228 119.767 159.107 119.888C158.995 120.009 158.836 120.07 158.631 120.07C158.435 120.07 158.281 120.014 158.169 119.902C158.066 119.79 158.015 119.631 158.015 119.426C158.015 119.23 158.071 119.071 158.183 118.95C158.304 118.829 158.467 118.768 158.673 118.768Z" fill="white"/>
<defs>
<filter id="filter0_f_9_56" x="4.65231" y="36.1482" width="73.2827" height="72.8061" filterUnits="userSpaceOnUse" color-interpolation-filters="sRGB">
<feFlood flood-opacity="0" result="BackgroundImageFix"/>
<feBlend mode="normal" in="SourceGraphic" in2="BackgroundImageFix" result="shape"/>
<feGaussianBlur stdDeviation="12" result="effect1_foregroundBlur_9_56"/>
</filter>
<filter id="filter1_b_9_56" x="4.78226" y="36.7821" width="88.2177" height="88.2179" filterUnits="userSpaceOnUse" color-interpolation-filters="sRGB">
<feFlood flood-opacity="0" result="BackgroundImageFix"/>
<feGaussianBlur in="BackgroundImageFix" stdDeviation="12"/>
<feComposite in2="SourceAlpha" operator="in" result="effect1_backgroundBlur_9_56"/>
<feBlend mode="normal" in="SourceGraphic" in2="effect1_backgroundBlur_9_56" result="shape"/>
</filter>
<filter id="filter2_bd_9_56" x="32.2093" y="56.9306" width="33.3631" height="47.8481" filterUnits="userSpaceOnUse" color-interpolation-filters="sRGB">
<feFlood flood-opacity="0" result="BackgroundImageFix"/>
<feGaussianBlur in="BackgroundImageFix" stdDeviation="7.5"/>
<feComposite in2="SourceAlpha" operator="in" result="effect1_backgroundBlur_9_56"/>
<feColorMatrix in="SourceAlpha" type="matrix" values="0 0 0 0 0 0 0 0 0 0 0 0 0 0 0 0 0 0 127 0" result="hardAlpha"/>
<feOffset dx="5" dy="5"/>
<feGaussianBlur stdDeviation="5"/>
<feColorMatrix type="matrix" values="0 0 0 0 0.577356 0 0 0 0 0.359375 0 0 0 0 0.9375 0 0 0 0.5 0"/>
<feBlend mode="normal" in2="effect1_backgroundBlur_9_56" result="effect2_dropShadow_9_56"/>
<feBlend mode="normal" in="SourceGraphic" in2="effect2_dropShadow_9_56" result="shape"/>
</filter>
<linearGradient id="paint0_linear_9_56" x1="36.4219" y1="54.9897" x2="46.3875" y2="91.8168" gradientUnits="userSpaceOnUse">
<stop stop-color="#BC94FF"/>
<stop offset="1" stop-color="#9F66FF"/>
</linearGradient>
<linearGradient id="paint1_linear_9_56" x1="35.8659" y1="66.2345" x2="60.2449" y2="96.4284" gradientUnits="userSpaceOnUse">
<stop stop-color="white" stop-opacity="0.25"/>
<stop offset="1" stop-color="white" stop-opacity="0"/>
</linearGradient>
<linearGradient id="paint2_linear_9_56" x1="48.8912" y1="72.9374" x2="45.7962" y2="72.6927" gradientUnits="userSpaceOnUse">
<stop stop-color="white" stop-opacity="0.75"/>
<stop offset="1" stop-color="white" stop-opacity="0.2"/>
</linearGradient>
<linearGradient id="paint3_linear_9_56" x1="47.7446" y1="74.0099" x2="52.8999" y2="75.2131" gradientUnits="userSpaceOnUse">
<stop stop-color="white" stop-opacity="0.25"/>
<stop offset="1" stop-color="white" stop-opacity="0"/>
</linearGradient>
</defs>
</svg>
