<svg width="270" height="67" viewBox="0 0 270 67" fill="none" xmlns="http://www.w3.org/2000/svg">
<rect width="270" height="67" rx="20" fill="#30353E"/>
<g filter="url(#filter0_b_7_29)">
<path d="M38.1353 11.6134L20.8614 16.199C14.5665 17.8701 11.9556 22.35 13.6421 28.5858L18.2658 45.6815C19.9523 51.9174 24.4745 54.5037 30.7693 52.8327L48.0432 48.2471C54.3381 46.5761 56.9327 42.1005 55.2461 35.8647L50.6224 18.7689C48.9359 12.5331 44.4302 9.94238 38.1353 11.6134Z" fill="url(#paint0_linear_7_29)"/>
</g>
<g filter="url(#filter1_f_7_29)">
<path d="M19.9989 24.6819C19.0408 26.1969 18.7945 27.9162 19.3012 29.4578L23.034 40.8143C24.0923 44.0342 28.0749 45.6232 31.9377 44.379L42.8754 40.8558C46.7382 39.6116 49.0099 35.9954 47.9553 32.7869L44.2225 21.4304C43.1679 18.222 39.1812 16.6204 35.3184 17.8646L24.3807 21.3877C22.5254 21.9853 20.9539 23.1666 19.9989 24.6819" fill="#74DE60" fill-opacity="0.5"/>
</g>
<g filter="url(#filter2_b_7_29)">
<mask id="path-4-outside-1_7_29" maskUnits="userSpaceOnUse" x="21" y="20" width="41" height="40" fill="black">
<rect fill="white" x="21" y="20" width="41" height="40"/>
<path d="M32.9101 59L50.7917 59C57.308 59 61 55.3423 61 48.8864L61 31.1876C61 24.7318 57.308 21.074 50.7917 21.074L32.9101 21.074C26.3938 21.074 22.7188 24.7318 22.7188 31.1876L22.7188 48.8864C22.7188 55.3423 26.3938 59 32.9101 59"/>
</mask>
<path d="M32.9101 59L50.7917 59C57.308 59 61 55.3423 61 48.8864L61 31.1876C61 24.7318 57.308 21.074 50.7917 21.074L32.9101 21.074C26.3938 21.074 22.7188 24.7318 22.7188 31.1876L22.7188 48.8864C22.7188 55.3423 26.3938 59 32.9101 59" fill="#72DC60" fill-opacity="0.35"/>
<path d="M32.9101 58C32.3578 58 31.9101 58.4477 31.9101 59C31.9101 59.5523 32.3578 60 32.9101 60V58ZM32.9101 60C33.4624 60 33.9101 59.5523 33.9101 59C33.9101 58.4477 33.4624 58 32.9101 58V60ZM32.9101 60L50.7917 60V58L32.9101 58V60ZM50.7917 60C54.2332 60 57.0683 59.0312 59.0433 57.0745C61.0196 55.1166 62 52.3028 62 48.8864H60C60 51.9258 59.1344 54.1689 57.6357 55.6537C56.1355 57.1399 53.8665 58 50.7917 58V60ZM62 48.8864L62 31.1876H60L60 48.8864H62ZM62 31.1876C62 27.7712 61.0196 24.9575 59.0433 22.9995C57.0683 21.0428 54.2332 20.074 50.7917 20.074V22.074C53.8665 22.074 56.1355 22.9341 57.6357 24.4203C59.1344 25.9051 60 28.1482 60 31.1876H62ZM50.7917 20.074L32.9101 20.074V22.074L50.7917 22.074V20.074ZM32.9101 20.074C29.4685 20.074 26.6371 21.0429 24.6661 23.0004C22.6942 24.9588 21.7188 27.7725 21.7188 31.1876H23.7188C23.7188 28.1469 24.5808 25.9038 26.0755 24.4194C27.5711 22.934 29.8354 22.074 32.9101 22.074V20.074ZM21.7188 31.1876L21.7188 48.8864H23.7188L23.7188 31.1876H21.7188ZM21.7188 48.8864C21.7188 52.3016 22.6942 55.1153 24.6661 57.0737C26.6371 59.0311 29.4685 60 32.9101 60V58C29.8354 58 27.5711 57.14 26.0755 55.6546C24.5808 54.1702 23.7188 51.9271 23.7188 48.8864H21.7188Z" fill="url(#paint1_linear_7_29)" mask="url(#path-4-outside-1_7_29)"/>
</g>
<g filter="url(#filter3_bd_7_29)">
<path d="M43.2949 32.2984V44.3399L48.0034 39.6371C48.5777 39.0872 49.4773 39.0872 50.0515 39.6371C50.6066 40.187 50.6066 41.0972 50.0515 41.6472L42.8738 48.7962C42.3378 49.3272 41.3808 49.3272 40.8449 48.7962L33.6671 41.6472C33.1121 41.0972 33.1121 40.187 33.6671 39.6371C33.9542 39.3716 34.3198 39.2199 34.6816 39.2199C35.0453 39.2199 35.4281 39.3716 35.696 39.6371L40.4238 44.3399V32.2984C40.4238 31.502 41.0554 30.8762 41.8593 30.8762C42.6441 30.8762 43.2949 31.502 43.2949 32.2984Z" fill="url(#paint2_linear_7_29)"/>
<path d="M43.1949 44.3399V44.5811L43.3655 44.4107L48.0733 39.7086C48.6087 39.1966 49.4464 39.1967 49.9817 39.7087C50.4967 40.2196 50.4965 41.0655 49.9811 41.5761L49.9809 41.5763L42.8034 48.7252C42.8033 48.7252 42.8033 48.7252 42.8033 48.7253C42.3063 49.2175 41.4123 49.2175 40.9154 48.7253C40.9153 48.7252 40.9153 48.7252 40.9152 48.7252L33.7377 41.5763L33.7375 41.5761C33.2223 41.0657 33.2219 40.2203 33.7363 39.7093C34.0066 39.4599 34.348 39.3199 34.6816 39.3199C35.0194 39.3199 35.3767 39.4616 35.6256 39.7081C35.6256 39.7081 35.6256 39.7081 35.6257 39.7081L40.3532 44.4108L40.5238 44.5804V44.3399V32.2984C40.5238 31.5581 41.1098 30.9762 41.8593 30.9762C42.5906 30.9762 43.1949 31.5589 43.1949 32.2984V44.3399Z" stroke="url(#paint3_linear_7_29)" stroke-opacity="0.5" stroke-width="0.2"/>
</g>
<path d="M84.98 26.96C86.2333 26.96 87.36 27.22 88.36 27.74L87.88 30L87.66 30.1C87.26 29.82 86.82 29.6 86.34 29.44C85.86 29.28 85.3667 29.2 84.86 29.2C82.74 29.2 81.68 30.5933 81.68 33.38C81.68 34.8867 81.9533 36.02 82.5 36.78C83.06 37.5267 83.8733 37.9 84.94 37.9C85.4333 37.9 85.94 37.8267 86.46 37.68C86.9933 37.52 87.4733 37.3067 87.9 37.04L88.14 37.18L87.92 39.48C86.9067 39.9467 85.84 40.18 84.72 40.18C82.8 40.18 81.3333 39.62 80.32 38.5C79.32 37.38 78.82 35.7733 78.82 33.68C78.82 31.5467 79.3533 29.8933 80.42 28.72C81.5 27.5467 83.02 26.96 84.98 26.96ZM95.4547 34.66C96.668 36.2867 97.988 37.8867 99.4147 39.46L99.3547 39.76C98.448 39.9867 97.6214 40.1267 96.8747 40.18L96.5547 40.04C95.2347 38.2933 94.0414 36.6067 92.9747 34.98L92.9347 36.76L93.0347 40H90.5147L90.6147 37L90.5147 29.9H93.0747L92.9747 34.46L95.7347 30.92L96.3547 29.9L99.1147 29.88L95.4547 34.66ZM109.502 40H106.962L106.682 38.54L106.502 37.96L104.462 37.94L102.662 37.98L102.522 38.4L102.222 40H99.7616L103.302 29.9H106.282L109.502 40ZM105.962 36.06L104.822 32.2H104.662L103.322 36.06L104.622 36.08L105.962 36.06ZM118.07 36.76L118.17 40H115.63L115.75 37L115.73 35.88H115.57C114.957 36.4267 114.257 36.82 113.47 37.06C112.323 37.06 111.463 36.8133 110.89 36.32C110.33 35.8133 110.043 35.0333 110.03 33.98L109.97 29.88H112.55L112.51 33.32C112.497 33.8133 112.61 34.2 112.85 34.48C113.09 34.76 113.43 34.9 113.87 34.9C114.443 34.9 115.057 34.6733 115.71 34.22L115.63 29.88H118.21L118.07 36.76ZM129.58 40H127.04L126.76 38.54L126.58 37.96L124.54 37.94L122.74 37.98L122.6 38.4L122.3 40H119.84L123.38 29.9H126.36L129.58 40ZM126.04 36.06L124.9 32.2H124.74L123.4 36.06L124.7 36.08L126.04 36.06ZM136.881 30.1L136.741 32.02L134.701 31.88H134.121L134.061 36.76L134.141 40H131.641L131.741 37L131.701 31.88H131.121L129.041 32.02L128.881 31.82L129.021 29.9H136.741L136.881 30.1ZM143.146 33.62C144.252 33.62 145.092 33.86 145.666 34.34C146.239 34.8067 146.526 35.4933 146.526 36.4C146.526 37.52 146.106 38.4 145.266 39.04C144.439 39.68 143.286 40 141.806 40H138.446L138.586 37L138.446 29.86H141.006L140.946 33.62H143.146ZM142.426 38.26C142.892 38.1667 143.246 37.9933 143.486 37.74C143.739 37.4733 143.866 37.14 143.866 36.74C143.866 36.3133 143.726 35.98 143.446 35.74C143.179 35.4867 142.792 35.3667 142.286 35.38L140.906 35.42L140.886 36.78L140.926 38.18L142.426 38.26ZM163.009 40H160.749L160.609 36.94L160.269 33.64H160.109L157.889 39H155.949L153.969 33.64H153.809L153.449 36.7L153.229 40H151.089L152.169 29.9H155.129L155.529 31.38L156.989 35.66H157.149L158.729 31.4L159.169 29.9H162.069L163.009 40ZM173.974 40H171.434L171.154 38.54L170.974 37.96L168.934 37.94L167.134 37.98L166.994 38.4L166.694 40H164.234L167.774 29.9H170.754L173.974 40ZM170.434 36.06L169.294 32.2H169.134L167.794 36.06L169.094 36.08L170.434 36.06ZM180.031 29.88C181.178 29.88 182.058 30.1533 182.671 30.7C183.285 31.2333 183.591 32.0067 183.591 33.02C183.591 34.1933 183.185 35.1333 182.371 35.84C181.558 36.5467 180.471 36.9 179.111 36.9H178.091L178.191 40H175.671L175.771 37L175.671 29.9L180.031 29.88ZM179.571 35.1C180.038 34.9533 180.385 34.7333 180.611 34.44C180.838 34.1467 180.951 33.7533 180.951 33.26C180.951 32.7533 180.805 32.3733 180.511 32.12C180.231 31.8667 179.791 31.7267 179.191 31.7L178.191 31.74L178.131 35.04L179.571 35.1ZM190.338 34.66C191.551 36.2867 192.871 37.8867 194.298 39.46L194.238 39.76C193.331 39.9867 192.504 40.1267 191.758 40.18L191.438 40.04C190.118 38.2933 188.924 36.6067 187.858 34.98L187.818 36.76L187.918 40H185.398L185.498 37L185.398 29.9H187.958L187.858 34.46L190.618 30.92L191.238 29.9L193.998 29.88L190.338 34.66ZM196.064 37L195.944 29.94L198.524 29.8L198.344 36.18H198.524L202.544 29.88H205.244L205.124 36.76L205.204 40H202.664L202.784 37L202.804 33.68H202.624L198.584 40H195.944L196.064 37ZM212.551 29.88C213.698 29.88 214.578 30.1533 215.191 30.7C215.804 31.2333 216.111 32.0067 216.111 33.02C216.111 34.1933 215.704 35.1333 214.891 35.84C214.078 36.5467 212.991 36.9 211.631 36.9H210.611L210.711 40H208.191L208.291 37L208.191 29.9L212.551 29.88ZM212.091 35.1C212.558 34.9533 212.904 34.7333 213.131 34.44C213.358 34.1467 213.471 33.7533 213.471 33.26C213.471 32.7533 213.324 32.3733 213.031 32.12C212.751 31.8667 212.311 31.7267 211.711 31.7L210.711 31.74L210.651 35.04L212.091 35.1ZM222.257 29.74C223.777 29.74 224.95 30.1733 225.777 31.04C226.604 31.9067 227.017 33.1333 227.017 34.72C227.017 36.4533 226.564 37.8 225.657 38.76C224.764 39.7067 223.497 40.18 221.857 40.18C220.35 40.18 219.184 39.74 218.357 38.86C217.53 37.9667 217.117 36.7133 217.117 35.1C217.117 33.3933 217.564 32.0733 218.457 31.14C219.35 30.2067 220.617 29.74 222.257 29.74ZM222.037 31.78C221.21 31.78 220.617 32.0067 220.257 32.46C219.91 32.9 219.737 33.6667 219.737 34.76C219.737 35.64 219.81 36.3333 219.957 36.84C220.117 37.3333 220.364 37.6867 220.697 37.9C221.044 38.1133 221.504 38.22 222.077 38.22C222.917 38.22 223.51 38 223.857 37.56C224.217 37.12 224.397 36.3467 224.397 35.24C224.397 34.36 224.317 33.6733 224.157 33.18C223.997 32.6733 223.75 32.3133 223.417 32.1C223.084 31.8867 222.624 31.78 222.037 31.78ZM235.05 34.78C235.757 34.9533 236.277 35.2333 236.61 35.62C236.957 35.9933 237.13 36.4933 237.13 37.12C237.13 38.1333 236.71 38.88 235.87 39.36C235.03 39.84 233.784 40.08 232.13 40.08C231.397 40.08 230.364 40.0533 229.03 40L229.13 37L229.03 29.9L233.09 29.88C234.21 29.88 235.084 30.1 235.71 30.54C236.35 30.98 236.67 31.6133 236.67 32.44C236.67 32.9733 236.53 33.44 236.25 33.84C235.97 34.24 235.57 34.5533 235.05 34.78ZM234.05 32.78C234.05 32.3667 233.904 32.08 233.61 31.92C233.33 31.76 232.83 31.68 232.11 31.68H231.49L231.45 34.06L232.91 34.1C233.297 34.0067 233.584 33.86 233.77 33.66C233.957 33.4467 234.05 33.1533 234.05 32.78ZM232.57 38.32C233.21 38.32 233.697 38.2133 234.03 38C234.377 37.7733 234.55 37.44 234.55 37C234.55 36.68 234.437 36.4267 234.21 36.24C233.984 36.0533 233.637 35.9067 233.17 35.8L231.43 35.84L231.41 36.76L231.45 38.26C231.877 38.3 232.25 38.32 232.57 38.32ZM244.205 34.66C245.418 36.2867 246.738 37.8867 248.165 39.46L248.105 39.76C247.198 39.9867 246.371 40.1267 245.625 40.18L245.305 40.04C243.985 38.2933 242.791 36.6067 241.725 34.98L241.685 36.76L241.785 40H239.265L239.365 37L239.265 29.9H241.825L241.725 34.46L244.485 30.92L245.105 29.9L247.865 29.88L244.205 34.66ZM254.092 37.26L254.192 40H251.672L251.792 37.26L251.772 36.76L248.352 29.9H251.032L251.252 30.64L252.952 34.18H253.092L254.972 30.74L255.292 29.9H257.892L254.112 36.7L254.092 37.26Z" fill="white"/>
<defs>
<filter id="filter0_b_7_29" x="0.140968" y="-1.88273" width="68.608" height="68.212" filterUnits="userSpaceOnUse" color-interpolation-filters="sRGB">
<feFlood flood-opacity="0" result="BackgroundImageFix"/>
<feGaussianBlur in="BackgroundImageFix" stdDeviation="6.5"/>
<feComposite in2="SourceAlpha" operator="in" result="effect1_backgroundBlur_7_29"/>
<feBlend mode="normal" in="SourceGraphic" in2="effect1_backgroundBlur_7_29" result="shape"/>
</filter>
<filter id="filter1_f_7_29" x="3.04386" y="1.44264" width="61.1696" height="59.3599" filterUnits="userSpaceOnUse" color-interpolation-filters="sRGB">
<feFlood flood-opacity="0" result="BackgroundImageFix"/>
<feBlend mode="normal" in="SourceGraphic" in2="BackgroundImageFix" result="shape"/>
<feGaussianBlur stdDeviation="8" result="effect1_foregroundBlur_7_29"/>
</filter>
<filter id="filter2_b_7_29" x="6.71877" y="5.07404" width="70.2812" height="69.926" filterUnits="userSpaceOnUse" color-interpolation-filters="sRGB">
<feFlood flood-opacity="0" result="BackgroundImageFix"/>
<feGaussianBlur in="BackgroundImageFix" stdDeviation="7.5"/>
<feComposite in2="SourceAlpha" operator="in" result="effect1_backgroundBlur_7_29"/>
<feBlend mode="normal" in="SourceGraphic" in2="effect1_backgroundBlur_7_29" result="shape"/>
</filter>
<filter id="filter3_bd_7_29" x="18.2508" y="15.8762" width="47.217" height="48.3182" filterUnits="userSpaceOnUse" color-interpolation-filters="sRGB">
<feFlood flood-opacity="0" result="BackgroundImageFix"/>
<feGaussianBlur in="BackgroundImageFix" stdDeviation="7.5"/>
<feComposite in2="SourceAlpha" operator="in" result="effect1_backgroundBlur_7_29"/>
<feColorMatrix in="SourceAlpha" type="matrix" values="0 0 0 0 0 0 0 0 0 0 0 0 0 0 0 0 0 0 127 0" result="hardAlpha"/>
<feOffset dx="5" dy="5"/>
<feGaussianBlur stdDeviation="5"/>
<feColorMatrix type="matrix" values="0 0 0 0 1 0 0 0 0 0.447059 0 0 0 0 0.368627 0 0 0 0.5 0"/>
<feBlend mode="normal" in2="effect1_backgroundBlur_7_29" result="effect2_dropShadow_7_29"/>
<feBlend mode="normal" in="SourceGraphic" in2="effect2_dropShadow_7_29" result="shape"/>
</filter>
<linearGradient id="paint0_linear_7_29" x1="37.8301" y1="33.9557" x2="9.79719" y2="58.4938" gradientUnits="userSpaceOnUse">
<stop stop-color="#9BF763"/>
<stop offset="1" stop-color="#26AB5B"/>
</linearGradient>
<linearGradient id="paint1_linear_7_29" x1="54.9063" y1="54.5816" x2="30.762" y2="24.3982" gradientUnits="userSpaceOnUse">
<stop stop-color="white" stop-opacity="0.25"/>
<stop offset="1" stop-color="white" stop-opacity="0"/>
</linearGradient>
<linearGradient id="paint2_linear_7_29" x1="34.4715" y1="45.8865" x2="53.652" y2="45.2987" gradientUnits="userSpaceOnUse">
<stop stop-color="white"/>
<stop offset="1" stop-color="white" stop-opacity="0.2"/>
</linearGradient>
<linearGradient id="paint3_linear_7_29" x1="33.9885" y1="39.6478" x2="50.7306" y2="38.9923" gradientUnits="userSpaceOnUse">
<stop stop-color="white"/>
<stop offset="1" stop-color="white" stop-opacity="0"/>
</linearGradient>
</defs>
</svg>
