<svg width="270" height="67" viewBox="0 0 270 67" fill="none" xmlns="http://www.w3.org/2000/svg">
<rect width="270" height="67" rx="10" fill="#30353E"/>
<path d="M60.2293 15.0181L46.6869 11.1945C41.7747 9.80753 38.144 12.0308 36.8234 17.2239L32.3509 34.8126C31.0087 40.0909 33.1154 43.861 38.0276 45.248L51.57 49.0716C56.5613 50.4809 60.094 48.303 61.4362 43.0247L65.9087 25.4361C67.2292 20.2429 65.2206 16.4274 60.2293 15.0181Z" fill="url(#paint0_linear_7_29)"/>
<g opacity="0.5" filter="url(#filter0_f_7_29)">
<path d="M56.6909 19.8346L47.4644 17.2295C44.1176 16.2846 41.644 17.7993 40.7443 21.3374L37.6971 33.3207C36.7827 36.9169 38.218 39.4856 41.5647 40.4305L50.7913 43.0356C54.1919 43.9958 56.5987 42.5119 57.5132 38.9158L60.5603 26.9325C61.46 23.3943 60.0916 20.7948 56.6909 19.8346Z" fill="#39B93A"/>
</g>
<g filter="url(#filter1_b_7_29)">
<mask id="path-4-outside-1_7_29" maskUnits="userSpaceOnUse" x="17" y="17.4371" width="41" height="43" fill="black">
<rect fill="white" x="17" y="17.4371" width="41" height="43"/>
<path d="M45.6005 18.4371H28.9132C22.3884 18.4371 18 23.2641 18 30.4437V47.0137C18 54.173 22.3884 59 28.9132 59H45.6005C52.1253 59 56.4944 54.173 56.4944 47.0137V30.4437C56.4944 23.2641 52.1253 18.4371 45.6005 18.4371"/>
</mask>
<path d="M45.6005 18.4371H28.9132C22.3884 18.4371 18 23.2641 18 30.4437V47.0137C18 54.173 22.3884 59 28.9132 59H45.6005C52.1253 59 56.4944 54.173 56.4944 47.0137V30.4437C56.4944 23.2641 52.1253 18.4371 45.6005 18.4371" fill="#72DC60" fill-opacity="0.35"/>
<path d="M45.6005 19.4371C46.1528 19.4371 46.6005 18.9894 46.6005 18.4371C46.6005 17.8848 46.1528 17.4371 45.6005 17.4371V19.4371ZM45.6005 17.4371C45.0482 17.4371 44.6005 17.8848 44.6005 18.4371C44.6005 18.9894 45.0482 19.4371 45.6005 19.4371V17.4371ZM45.6005 17.4371H28.9132V19.4371H45.6005V17.4371ZM28.9132 17.4371C25.3908 17.4371 22.3862 18.7471 20.2698 21.0754C18.161 23.3954 17 26.6516 17 30.4437H19C19 27.0562 20.0332 24.3091 21.7498 22.4207C23.4587 20.5406 25.9107 19.4371 28.9132 19.4371V17.4371ZM17 30.4437V47.0137H19V30.4437H17ZM17 47.0137C17 50.7963 18.1614 54.0475 20.2702 56.3647C22.3865 58.6901 25.3909 60 28.9132 60V58C25.9107 58 23.4584 56.8965 21.7494 55.0185C20.0328 53.1323 19 50.3903 19 47.0137H17ZM28.9132 60H45.6005V58H28.9132V60ZM45.6005 60C49.123 60 52.123 58.6899 54.2347 56.3637C56.3385 54.0462 57.4944 50.7952 57.4944 47.0137H55.4944C55.4944 50.3915 54.4657 53.1337 52.7538 55.0194C51.0497 56.8967 48.6028 58 45.6005 58V60ZM57.4944 47.0137V30.4437H55.4944V47.0137H57.4944ZM57.4944 30.4437C57.4944 26.6527 56.3389 23.3967 54.2351 21.0763C52.1233 18.7473 49.1231 17.4371 45.6005 17.4371V19.4371C48.6027 19.4371 51.0494 20.5404 52.7534 22.4197C54.4653 24.3078 55.4944 27.055 55.4944 30.4437H57.4944Z" fill="url(#paint1_linear_7_29)" mask="url(#path-4-outside-1_7_29)"/>
</g>
<g filter="url(#filter2_bd_7_29)">
<mask id="path-6-inside-2_7_29" fill="white">
<path d="M34.9625 45.3058C34.5314 45.3058 34.1003 45.1334 33.7711 44.7866L29.2038 39.9738C28.5455 39.2802 28.5455 38.1566 29.2038 37.465C29.862 36.7714 30.9264 36.7694 31.5847 37.463L34.9625 41.0224L42.9078 32.6502C43.566 31.9566 44.6304 31.9566 45.2887 32.6502C45.9469 33.3438 45.9469 34.4674 45.2887 35.161L36.1539 44.7866C35.8248 45.1334 35.3937 45.3058 34.9625 45.3058"/>
</mask>
<path d="M34.9625 45.3058C34.5314 45.3058 34.1003 45.1334 33.7711 44.7866L29.2038 39.9738C28.5455 39.2802 28.5455 38.1566 29.2038 37.465C29.862 36.7714 30.9264 36.7694 31.5847 37.463L34.9625 41.0224L42.9078 32.6502C43.566 31.9566 44.6304 31.9566 45.2887 32.6502C45.9469 33.3438 45.9469 34.4674 45.2887 35.161L36.1539 44.7866C35.8248 45.1334 35.3937 45.3058 34.9625 45.3058" fill="url(#paint2_linear_7_29)"/>
<path d="M29.2038 37.465L29.3487 37.6029L29.3489 37.6027L29.2038 37.465ZM34.9625 41.0224L34.8175 41.1601L34.9625 41.3129L35.1076 41.1601L34.9625 41.0224ZM45.2887 35.161L45.1436 35.0234L45.1436 35.0234L45.2887 35.161ZM36.1539 44.7866L36.299 44.9243L36.299 44.9243L36.1539 44.7866ZM34.9625 45.1058C34.5854 45.1058 34.207 44.9554 33.9162 44.6489L33.6261 44.9243C33.9935 45.3115 34.4774 45.5058 34.9625 45.5058V45.1058ZM33.9162 44.6489L29.3489 39.8362L29.0587 40.1115L33.6261 44.9243L33.9162 44.6489ZM29.3489 39.8362C28.7637 39.2196 28.764 38.2172 29.3487 37.6029L29.0589 37.3271C28.327 38.0961 28.3273 39.3408 29.0587 40.1115L29.3489 39.8362ZM29.3489 37.6027C29.9286 36.9918 30.8605 36.9905 31.4396 37.6007L31.7297 37.3253C30.9923 36.5483 29.7955 36.5509 29.0587 37.3273L29.3489 37.6027ZM31.4396 37.6007L34.8175 41.1601L35.1076 40.8847L31.7297 37.3253L31.4396 37.6007ZM35.1076 41.1601L43.0529 32.7879L42.7627 32.5125L34.8175 40.8847L35.1076 41.1601ZM43.0529 32.7879C43.6322 32.1773 44.5642 32.1773 45.1436 32.7879L45.4337 32.5125C44.6966 31.7358 43.4998 31.7358 42.7627 32.5125L43.0529 32.7879ZM45.1436 32.7879C45.7286 33.4043 45.7286 34.4069 45.1436 35.0234L45.4337 35.2987C46.1652 34.5279 46.1652 33.2833 45.4337 32.5125L45.1436 32.7879ZM45.1436 35.0234L36.0089 44.6489L36.299 44.9243L45.4337 35.2987L45.1436 35.0234ZM36.0089 44.6489C35.7181 44.9554 35.3397 45.1058 34.9625 45.1058V45.5058C35.4477 45.5058 35.9316 45.3115 36.299 44.9243L36.0089 44.6489Z" fill="url(#paint3_linear_7_29)" fill-opacity="0.5" mask="url(#path-6-inside-2_7_29)"/>
</g>
<path d="M87.98 26.96C89.2333 26.96 90.36 27.22 91.36 27.74L90.88 30L90.66 30.1C90.26 29.82 89.82 29.6 89.34 29.44C88.86 29.28 88.3667 29.2 87.86 29.2C85.74 29.2 84.68 30.5933 84.68 33.38C84.68 34.8867 84.9533 36.02 85.5 36.78C86.06 37.5267 86.8733 37.9 87.94 37.9C88.4333 37.9 88.94 37.8267 89.46 37.68C89.9933 37.52 90.4733 37.3067 90.9 37.04L91.14 37.18L90.92 39.48C89.9067 39.9467 88.84 40.18 87.72 40.18C85.8 40.18 84.3333 39.62 83.32 38.5C82.32 37.38 81.82 35.7733 81.82 33.68C81.82 31.5467 82.3533 29.8933 83.42 28.72C84.5 27.5467 86.02 26.96 87.98 26.96ZM97.8547 29.74C99.3747 29.74 100.548 30.1733 101.375 31.04C102.201 31.9067 102.615 33.1333 102.615 34.72C102.615 36.4533 102.161 37.8 101.255 38.76C100.361 39.7067 99.0947 40.18 97.4547 40.18C95.948 40.18 94.7814 39.74 93.9547 38.86C93.128 37.9667 92.7147 36.7133 92.7147 35.1C92.7147 33.3933 93.1614 32.0733 94.0547 31.14C94.948 30.2067 96.2147 29.74 97.8547 29.74ZM97.6347 31.78C96.808 31.78 96.2147 32.0067 95.8547 32.46C95.508 32.9 95.3347 33.6667 95.3347 34.76C95.3347 35.64 95.408 36.3333 95.5547 36.84C95.7147 37.3333 95.9614 37.6867 96.2947 37.9C96.6414 38.1133 97.1014 38.22 97.6747 38.22C98.5147 38.22 99.108 38 99.4547 37.56C99.8147 37.12 99.9947 36.3467 99.9947 35.24C99.9947 34.36 99.9147 33.6733 99.7547 33.18C99.5947 32.6733 99.348 32.3133 99.0147 32.1C98.6814 31.8867 98.2214 31.78 97.6347 31.78ZM109.736 34.68L113.136 40H110.136L109.616 38.9L108.036 36.66L106.256 39.04L105.756 40H103.196L106.556 35.06L103.176 29.9H106.216L106.736 31.02L108.236 33.14L109.816 30.9L110.296 29.9H112.936L109.736 34.68ZM119.262 29.88C120.409 29.88 121.289 30.1533 121.902 30.7C122.515 31.2333 122.822 32.0067 122.822 33.02C122.822 34.1933 122.415 35.1333 121.602 35.84C120.789 36.5467 119.702 36.9 118.342 36.9H117.322L117.422 40H114.902L115.002 37L114.902 29.9L119.262 29.88ZM118.802 35.1C119.269 34.9533 119.615 34.7333 119.842 34.44C120.069 34.1467 120.182 33.7533 120.182 33.26C120.182 32.7533 120.035 32.3733 119.742 32.12C119.462 31.8667 119.022 31.7267 118.422 31.7L117.422 31.74L117.362 35.04L118.802 35.1ZM131.994 40H129.454L129.174 38.54L128.994 37.96L126.954 37.94L125.154 37.98L125.014 38.4L124.714 40H122.254L125.794 29.9H128.774L131.994 40ZM128.454 36.06L127.314 32.2H127.154L125.814 36.06L127.114 36.08L128.454 36.06ZM142.751 36.76L142.851 40H140.331L140.431 37L140.411 36.02L138.151 36L136.131 36.04L136.111 36.76L136.211 40H133.691L133.791 37L133.691 29.9H136.251L136.171 33.9L138.311 33.94L140.391 33.92L140.331 29.9H142.891L142.751 36.76ZM145.92 37L145.8 29.94L148.38 29.8L148.2 36.18H148.38L152.4 29.88H155.1L154.98 36.76L155.06 40H152.52L152.64 37L152.66 33.68H152.48L148.44 40H145.8L145.92 37ZM164.53 30.1L164.39 32.02L162.35 31.88H161.77L161.71 36.76L161.79 40H159.29L159.39 37L159.35 31.88H158.77L156.69 32.02L156.53 31.82L156.67 29.9H164.39L164.53 30.1ZM170.794 33.62C171.901 33.62 172.741 33.86 173.314 34.34C173.888 34.8067 174.174 35.4933 174.174 36.4C174.174 37.52 173.754 38.4 172.914 39.04C172.088 39.68 170.934 40 169.454 40H166.094L166.234 37L166.094 29.86H168.654L168.594 33.62H170.794ZM170.074 38.26C170.541 38.1667 170.894 37.9933 171.134 37.74C171.388 37.4733 171.514 37.14 171.514 36.74C171.514 36.3133 171.374 35.98 171.094 35.74C170.828 35.4867 170.441 35.3667 169.934 35.38L168.554 35.42L168.534 36.78L168.574 38.18L170.074 38.26ZM184.158 34.66C185.371 36.2867 186.691 37.8867 188.118 39.46L188.058 39.76C187.151 39.9867 186.324 40.1267 185.578 40.18L185.258 40.04C183.938 38.2933 182.744 36.6067 181.678 34.98L181.638 36.76L181.738 40H179.218L179.318 37L179.218 29.9H181.778L181.678 34.46L184.438 30.92L185.058 29.9L187.818 29.88L184.158 34.66ZM198.205 40H195.665L195.385 38.54L195.205 37.96L193.165 37.94L191.365 37.98L191.225 38.4L190.925 40H188.465L192.005 29.9H194.985L198.205 40ZM194.665 36.06L193.525 32.2H193.365L192.025 36.06L193.325 36.08L194.665 36.06ZM204.262 29.88C205.409 29.88 206.289 30.1533 206.902 30.7C207.515 31.2333 207.822 32.0067 207.822 33.02C207.822 34.1933 207.415 35.1333 206.602 35.84C205.789 36.5467 204.702 36.9 203.342 36.9H202.322L202.422 40H199.902L200.002 37L199.902 29.9L204.262 29.88ZM203.802 35.1C204.269 34.9533 204.615 34.7333 204.842 34.44C205.069 34.1467 205.182 33.7533 205.182 33.26C205.182 32.7533 205.035 32.3733 204.742 32.12C204.462 31.8667 204.022 31.7267 203.422 31.7L202.422 31.74L202.362 35.04L203.802 35.1ZM216.346 30.1L216.206 32.02L214.166 31.88H213.586L213.526 36.76L213.606 40H211.106L211.206 37L211.166 31.88H210.586L208.506 32.02L208.346 31.82L208.486 29.9H216.206L216.346 30.1ZM221.644 29.74C223.164 29.74 224.337 30.1733 225.164 31.04C225.99 31.9067 226.404 33.1333 226.404 34.72C226.404 36.4533 225.95 37.8 225.044 38.76C224.15 39.7067 222.884 40.18 221.244 40.18C219.737 40.18 218.57 39.74 217.744 38.86C216.917 37.9667 216.504 36.7133 216.504 35.1C216.504 33.3933 216.95 32.0733 217.844 31.14C218.737 30.2067 220.004 29.74 221.644 29.74ZM221.424 31.78C220.597 31.78 220.004 32.0067 219.644 32.46C219.297 32.9 219.124 33.6667 219.124 34.76C219.124 35.64 219.197 36.3333 219.344 36.84C219.504 37.3333 219.75 37.6867 220.084 37.9C220.43 38.1133 220.89 38.22 221.464 38.22C222.304 38.22 222.897 38 223.244 37.56C223.604 37.12 223.784 36.3467 223.784 35.24C223.784 34.36 223.704 33.6733 223.544 33.18C223.384 32.6733 223.137 32.3133 222.804 32.1C222.47 31.8867 222.01 31.78 221.424 31.78ZM235.875 36.76L235.975 40H233.435L233.555 37L233.535 35.88H233.375C232.761 36.4267 232.061 36.82 231.275 37.06C230.128 37.06 229.268 36.8133 228.695 36.32C228.135 35.8133 227.848 35.0333 227.835 33.98L227.775 29.88H230.355L230.315 33.32C230.301 33.8133 230.415 34.2 230.655 34.48C230.895 34.76 231.235 34.9 231.675 34.9C232.248 34.9 232.861 34.6733 233.515 34.22L233.435 29.88H236.015L235.875 36.76ZM243.884 34.66C245.098 36.2867 246.418 37.8867 247.844 39.46L247.784 39.76C246.878 39.9867 246.051 40.1267 245.304 40.18L244.984 40.04C243.664 38.2933 242.471 36.6067 241.404 34.98L241.364 36.76L241.464 40H238.944L239.044 37L238.944 29.9H241.504L241.404 34.46L244.164 30.92L244.784 29.9L247.544 29.88L243.884 34.66ZM253.771 37.26L253.871 40H251.351L251.471 37.26L251.451 36.76L248.031 29.9H250.711L250.931 30.64L252.631 34.18H252.771L254.651 30.74L254.971 29.9H257.571L253.791 36.7L253.771 37.26Z" fill="white"/>
<defs>
<filter id="filter0_f_7_29" x="23.4269" y="2.95407" width="51.403" height="54.367" filterUnits="userSpaceOnUse" color-interpolation-filters="sRGB">
<feFlood flood-opacity="0" result="BackgroundImageFix"/>
<feBlend mode="normal" in="SourceGraphic" in2="BackgroundImageFix" result="shape"/>
<feGaussianBlur stdDeviation="7" result="effect1_foregroundBlur_7_29"/>
</filter>
<filter id="filter1_b_7_29" x="-7" y="-6.56291" width="88.4944" height="90.5629" filterUnits="userSpaceOnUse" color-interpolation-filters="sRGB">
<feFlood flood-opacity="0" result="BackgroundImageFix"/>
<feGaussianBlur in="BackgroundImageFix" stdDeviation="12"/>
<feComposite in2="SourceAlpha" operator="in" result="effect1_backgroundBlur_7_29"/>
<feBlend mode="normal" in="SourceGraphic" in2="effect1_backgroundBlur_7_29" result="shape"/>
</filter>
<filter id="filter2_bd_7_29" x="13.7101" y="17.13" width="47.0723" height="43.1758" filterUnits="userSpaceOnUse" color-interpolation-filters="sRGB">
<feFlood flood-opacity="0" result="BackgroundImageFix"/>
<feGaussianBlur in="BackgroundImageFix" stdDeviation="7.5"/>
<feComposite in2="SourceAlpha" operator="in" result="effect1_backgroundBlur_7_29"/>
<feColorMatrix in="SourceAlpha" type="matrix" values="0 0 0 0 0 0 0 0 0 0 0 0 0 0 0 0 0 0 127 0" result="hardAlpha"/>
<feOffset dx="5" dy="5"/>
<feGaussianBlur stdDeviation="5"/>
<feColorMatrix type="matrix" values="0 0 0 0 0.454902 0 0 0 0 0.870588 0 0 0 0 0.376471 0 0 0 0.5 0"/>
<feBlend mode="normal" in2="effect1_backgroundBlur_7_29" result="effect2_dropShadow_7_29"/>
<feBlend mode="normal" in="SourceGraphic" in2="effect2_dropShadow_7_29" result="shape"/>
</filter>
<linearGradient id="paint0_linear_7_29" x1="67.9999" y1="17.2122" x2="37.6444" y2="34.8432" gradientUnits="userSpaceOnUse">
<stop stop-color="#9BF763"/>
<stop offset="1" stop-color="#26AB5B"/>
</linearGradient>
<linearGradient id="paint1_linear_7_29" x1="24.1277" y1="23.1627" x2="50.255" y2="53.8719" gradientUnits="userSpaceOnUse">
<stop stop-color="white" stop-opacity="0.25"/>
<stop offset="1" stop-color="white" stop-opacity="0"/>
</linearGradient>
<linearGradient id="paint2_linear_7_29" x1="44.5719" y1="34.5093" x2="25.5688" y2="35.3121" gradientUnits="userSpaceOnUse">
<stop stop-color="white"/>
<stop offset="1" stop-color="white" stop-opacity="0.2"/>
</linearGradient>
<linearGradient id="paint3_linear_7_29" x1="30.5491" y1="36.5498" x2="45.0456" y2="36.6535" gradientUnits="userSpaceOnUse">
<stop stop-color="white"/>
<stop offset="1" stop-color="white" stop-opacity="0"/>
</linearGradient>
</defs>
</svg>
